<?xml version="1.0" encoding="UTF-8" standalone="no"?>
<!-- Created with Inkscape (http://www.inkscape.org/) -->

<svg
   xmlns:dc="http://purl.org/dc/elements/1.1/"
   xmlns:cc="http://creativecommons.org/ns#"
   xmlns:rdf="http://www.w3.org/1999/02/22-rdf-syntax-ns#"
   xmlns:svg="http://www.w3.org/2000/svg"
   xmlns="http://www.w3.org/2000/svg"
   xmlns:sodipodi="http://sodipodi.sourceforge.net/DTD/sodipodi-0.dtd"
   xmlns:inkscape="http://www.inkscape.org/namespaces/inkscape"
   sodipodi:docname="doug.svg"
   height="1724px"
   width="747px"
   inkscape:version="0.91 r13725"
   sodipodi:version="0.32"
   id="svg1291"
   version="1.1">
  <defs
     id="defs3386" />
  <sodipodi:namedview
     pagecolor="#ffffff"
     bordercolor="#666666"
     borderopacity="1"
     objecttolerance="10"
     gridtolerance="10"
     guidetolerance="10"
     inkscape:pageopacity="0"
     inkscape:pageshadow="2"
     inkscape:window-width="1357"
     inkscape:window-height="814"
     id="namedview3384"
     showgrid="false"
     inkscape:zoom="0.46747615"
     inkscape:cx="502.50968"
     inkscape:cy="1167.4387"
     inkscape:window-x="0"
     inkscape:window-y="0"
     inkscape:window-maximized="0"
     inkscape:current-layer="svg1291" />
  <metadata
     id="metadata1296">
    <rdf:RDF>
      <cc:Work
         rdf:about="">
        <dc:format>image/svg+xml</dc:format>
        <dc:type
           rdf:resource="http://purl.org/dc/dcmitype/StillImage" />
        <dc:title></dc:title>
        <dc:date>31 March, 2007</dc:date>
        <dc:creator>
          <cc:Agent>
            <dc:title>Van Anderson (SVG)</dc:title>
          </cc:Agent>
        </dc:creator>
        <dc:rights>
          <cc:Agent>
            <dc:title>Freely distibutable meme of Cascadia. Not exclusionist or degrading, including, but not limited to, ideas of racial, or religious superiority.</dc:title>
          </cc:Agent>
        </dc:rights>
        <dc:publisher>
          <cc:Agent>
            <dc:title>Van Anderson</dc:title>
          </cc:Agent>
        </dc:publisher>
        <dc:subject>
          <rdf:Bag>
            <rdf:li>Doug</rdf:li>
            <rdf:li>Cascadia</rdf:li>
            <rdf:li>kwanesum</rdf:li>
            <rdf:li>ilehi</rdf:li>
          </rdf:Bag>
        </dc:subject>
        <dc:description>The Doug flag is a symbol of Cascadian reunification, independence, ecology, environment, and identity.</dc:description>
        <cc:license
           rdf:resource="http://creativecommons.org/licenses/GPL/2.0/" />
        <dc:identifier>SVGDougVIA.1.0</dc:identifier>
        <dc:source>Collin Ferguson &amp; Alexander</dc:source>
        <dc:relation />
        <dc:language>Chinook Jargon, English, French</dc:language>
        <dc:contributor>
          <cc:Agent>
            <dc:title>Van Anderson, Collin Ferguson, Alexander</dc:title>
          </cc:Agent>
        </dc:contributor>
      </cc:Work>
      <cc:License
         rdf:about="http://creativecommons.org/licenses/GPL/2.0/">
        <cc:permits
           rdf:resource="http://web.resource.org/cc/Reproduction" />
        <cc:permits
           rdf:resource="http://web.resource.org/cc/Distribution" />
        <cc:requires
           rdf:resource="http://web.resource.org/cc/Notice" />
        <cc:permits
           rdf:resource="http://web.resource.org/cc/DerivativeWorks" />
        <cc:requires
           rdf:resource="http://web.resource.org/cc/ShareAlike" />
        <cc:requires
           rdf:resource="http://web.resource.org/cc/SourceCode" />
      </cc:License>
    </rdf:RDF>
  </metadata>
  <path
     id="path1310"
     d="m 290.67888,1715.1445 0,-8.8517 -3.8645,-4.2781 c -3.824,-4.2333 -3.8574,-4.3411 -3.185,-10.2839 0.657,-5.8077 0.5732,-6.1153 -2.542,-9.3294 -2.9085,-3.0008 -3.129,-3.6432 -2.2707,-6.6146 l 0.9506,-3.291 6.9466,-0.041 c 6.3552,-0.037 7.0526,-0.2502 8.1911,-2.5 0.9236,-1.8252 1.2482,-11.8101 1.2592,-38.7339 l 0.0147,-36.2747 -2.75,-1.0658 c -1.9489,-0.7553 -3.6289,-0.7537 -5.767,0.01 -1.6594,0.589 -5.2594,0.8096 -8,0.4902 -4.464,-0.5203 -5.2355,-0.31 -7.4073,2.0195 l -2.4243,2.6003 -20.5381,0 -20.5382,0 -2.1935,-2.75 c -2.0369,-2.5538 -2.6542,-2.731 -8.6515,-2.4836 -7.4541,0.3074 -9.0429,-0.7986 -8.5483,-5.9511 l 0.3182,-3.3153 7.4027,-0.073 c 6.7865,-0.066 7.5803,-0.2954 9.5375,-2.75 2.0256,-2.5403 2.5876,-2.6774 10.9756,-2.6774 8.0786,0 9.3138,-0.2707 14.3283,-3.1397 l 5.4876,-3.1397 12.2764,0.6821 12.2764,0.6821 2.1893,-3.5424 c 1.9095,-3.0896 2.6945,-3.5424 6.1411,-3.5424 3.1757,0 4.6325,-0.6808 7.4184,-3.4667 4.0257,-4.0256 4.1634,-4.6171 1.4667,-6.3012 -1.4619,-0.913 -2,-2.3321 -2,-5.2743 0,-3.5336 -0.4238,-4.2753 -3.4699,-6.0725 -4.8005,-2.8324 -5.4875,-6.9063 -2.1738,-12.8919 3.1549,-5.6989 4.6437,-13.8816 4.6437,-25.5221 0,-7.8827 0.2783,-9.4132 1.9944,-10.9662 2.9072,-2.631 3.9937,-7.7435 4,-18.8218 0.005,-8.8395 0.2467,-10.1336 2.4277,-13 4.7645,-6.2616 4.4854,-7.4942 -3.5486,-15.6729 -7.0331,-7.1598 -7.4099,-7.3895 -12.8099,-7.8107 -4.4742,-0.349 -5.9999,-0.9495 -7.7919,-3.0669 l -2.2283,-2.6328 -4.2717,4.6709 c -5.3927,5.8968 -6.9688,6.6476 -15.6475,7.4542 -7.0663,0.6567 -7.0666,0.6566 -8.1362,-2.1566 -1.304,-3.4297 -0.6324,-5.4872 2.017,-6.1801 2.6711,-0.6985 2.5135,-2.0927 -0.505,-4.4671 -3.5503,-2.7926 -3.1124,-5.1682 1.6476,-8.9382 3.2114,-2.5435 5.5153,-3.4462 10.2067,-3.9994 5.1173,-0.6034 6.4544,-1.1953 8.6024,-3.8081 2.3942,-2.9122 2.9453,-3.0931 9.3989,-3.0846 5.8613,0.01 7.2866,-0.3536 9.8268,-2.491 1.6341,-1.375 4.1965,-2.5 5.6943,-2.5 3.5872,0 5.1233,-1.684 5.1233,-5.6166 0,-2.328 0.7327,-3.7503 2.6525,-5.1488 4.1191,-3.0005 2.2056,-4.1328 -6.929,-4.1 l -8.2235,0.029 -4.5,4.3778 c -6.6686,6.4875 -10.4506,7.4582 -29.0576,7.4582 l -15.8062,0 -2.1362,-3 c -1.9871,-2.7906 -2.5765,-3 -8.4456,-3 -7.2533,0 -7.7685,-0.4027 -10.4364,-8.1569 -7.1339,-20.7352 -12.379,-23.8798 -36.618,-21.9543 -7.6075,0.6043 -12.3595,0.6044 -12.9822,0 -0.5402,-0.5242 -1.154,-4.3547 -1.3639,-8.5122 l -0.3817,-7.559 3.8639,-3.9572 c 2.4514,-2.5107 5.3874,-4.3409 8.0317,-5.0068 2.2922,-0.5773 5.1832,-2.1305 6.4243,-3.4516 1.6127,-1.7167 3.338,-2.402 6.047,-2.402 2.9134,0 4.0646,-0.5207 4.9747,-2.25 1.7634,-3.3504 17.9597,-19.7094 21.1731,-21.3857 2.5139,-1.3114 2.7201,-1.8098 2.1052,-5.0877 -0.5976,-3.1854 -0.3395,-3.9068 2.0906,-5.8445 2.8674,-2.2864 2.701,-4.4321 -0.3437,-4.4321 -0.9587,0 -6.8155,5.4 -13.0152,12 -11.0912,11.8073 -11.3428,12 -15.6723,12 -3.8776,0 -4.5844,0.3562 -5.9515,3 l -1.5514,3 -13.5731,0 -13.5731,0 -2.8024,-3 c -3.9536,-4.2323 -6.2069,-3.8484 -10.3229,1.7588 -4.1395,5.639 -10.3923,10.8806 -14.0856,11.8076 -2.0785,0.5217 -3.1695,0.102 -5.072,-1.9509 -1.3332,-1.4385 -3.0739,-2.6155 -3.8682,-2.6155 -0.7942,0 -2.8407,-1.5907 -4.5477,-3.5348 -2.78,-3.1662 -3.1036,-4.2022 -3.1036,-9.9349 0,-3.5201 0.4715,-7.6402 1.0477,-9.1559 1.253,-3.2954 21.4571,-23.5264 31.8232,-31.8655 6.9657,-5.6036 7.7163,-5.9515 13.6546,-6.3296 5.8766,-0.3742 6.3945,-0.231 7.9941,2.2103 2.3246,3.5477 3.5484,3.2608 6.4804,-1.5189 1.375,-2.2415 4.1875,-5.4172 6.25,-7.0571 3.1362,-2.4936 3.75,-3.5953 3.75,-6.7303 0,-3.1616 0.6171,-4.2445 3.9414,-6.9159 2.1677,-1.7421 5.0582,-3.1674 6.4232,-3.1674 2.9845,0 7.734,-3.8054 10.6615,-8.5422 1.9662,-3.1814 2.5281,-3.4578 7.0298,-3.4578 4.425,0 5.0411,-0.2868 6.4441,-3 1.3676,-2.6447 2.0732,-3 5.9576,-3 3.782,0 4.7176,-0.4373 6.6043,-3.0869 1.9279,-2.7075 2.6085,-3.0099 5.5381,-2.4603 3.0955,0.5807 3.4466,0.3714 4.7961,-2.8583 1.3748,-3.2905 1.753,-3.5019 6.78,-3.7897 l 5.3239,-0.3048 0.3024,-5.8344 c 0.3825,-7.3789 -0.7993,-9.0109 -5.9012,-8.1489 -3.2984,0.5572 -3.9648,0.3158 -5.4702,-1.9817 -3.0076,-4.5901 -4.9156,-4.9264 -8.7665,-1.5453 -2.415,2.1204 -4.463,3.0103 -6.9278,3.0103 -2.8372,0 -4.0146,0.6756 -6.2225,3.5702 -2.5023,3.2807 -3.028,3.5188 -6.4817,2.9353 -3.5271,-0.5959 -3.8907,-0.4109 -5.9056,3.004 l -2.1471,3.6391 -8.9218,-0.698 c -8.0676,-0.6311 -9.2526,-0.4935 -12.3771,1.4376 -1.9005,1.1746 -4.1108,1.8841 -4.9119,1.5767 -0.801,-0.3074 -3.7934,0.3622 -6.6497,1.4881 -6.4888,2.5576 -8.3398,2.5658 -10.6193,0.047 -1.5145,-1.6735 -3.08,-2 -9.5899,-2 -4.2789,0 -8.9028,0.4269 -10.2753,0.9487 -1.9497,0.7413 -3.0372,0.5226 -4.9728,-1 -1.4394,-1.1322 -4.024,-1.9487 -6.1685,-1.9487 -6.7911,0 -12.9323,-9.7268 -12.3061,-19.4913 0.3901,-6.0835 0.8086,-6.226 19.7715,-6.7326 l 13.8595,-0.3702 2.9641,-3.1731 2.9641,-3.173 11.594,0.6213 11.5939,0.6213 0.9707,-2.5532 c 1.4787,-3.8891 6.6334,-5.1471 17.8577,-4.3581 9.3978,0.6606 9.4184,0.6569 12.7701,-2.2859 3.7052,-3.2533 8.8828,-4.2243 20.4059,-3.8271 6.0953,0.2101 6.4768,0.089 7.1503,-2.2781 0.3913,-1.375 0.7566,-7.45 0.8117,-13.5 l 0.1004,-11 4.4993,-5.7314 c 2.4747,-3.1522 4.4994,-6.1739 4.4994,-6.7148 0,-1.7563 4.1676,-3.2703 7.2859,-2.6466 5.069,1.0138 7.7141,-1.4919 7.7141,-7.3078 0,-6.0478 -1.5628,-7.5863 -6.739,-6.6345 -3.7313,0.6862 -9.261,4.8816 -9.261,7.0264 0,0.6144 -1.35,3.2459 -3,5.8476 -1.65,2.6018 -3,5.2229 -3,5.8246 0,1.4244 -6.7555,8.9846 -9.4279,10.5511 -1.1397,0.668 -3.0693,1.2305 -4.2882,1.25 -1.2188,0.02 -3.7965,0.7891 -5.7281,1.7102 -3.2847,1.5664 -3.6318,1.5664 -5.3627,0 -2.3936,-2.1662 -3.0983,-2.1125 -5.8196,0.4441 l -2.2554,2.1188 -5.2554,-2.6188 c -4.7843,-2.3841 -6.3223,-2.6189 -17.1578,-2.6189 l -11.9025,0 -2.8024,3 c -1.7701,1.8949 -3.793,3 -5.4917,3 -5.5689,0 -18.3857,13.5112 -22.3214,23.5306 -1.7303,4.4051 -2.3488,5.0174 -5.7906,5.7325 -2.1193,0.4403 -5.0126,1.9113 -6.4295,3.2688 -2.5592,2.4518 -2.7054,2.4681 -22.0835,2.4681 l -19.507196,0 -2.2053,-2.9829 c -2.1263,-2.8759 -2.4157,-2.9608 -8.0745,-2.3694 -3.228,0.3374 -7.948,0.3017 -10.4889,-0.079 -3.8385,-0.5756 -5.0416,-1.3135 -7.1136,-4.3627 -3.1302,-4.6066 -3.4015,-10.6495 -0.5466,-12.1774 1.0709,-0.5732 4.0008,-2.8195 6.5108,-4.9919 2.6932,-2.331 6.0961,-4.2334 8.3028,-4.6417 2.8834,-0.5335 5.0754,-2.1454 9.5778,-7.0433 5.671296,-6.1694 5.981196,-6.3514 10.816696,-6.3514 3.7693,0 5.7741,-0.6071 8.2558,-2.5 1.8027,-1.375 4.5852,-2.5049 6.1833,-2.5108 4.6801,-0.017 12.6241,-2.826 15.3675,-5.4331 1.396,-1.3265 5.012,-3.3817 8.0356,-4.567 3.0236,-1.1853 6.0135,-2.5833 6.6441,-3.1066 0.6307,-0.5234 3.4496,-1.2244 6.2644,-1.5578 3.9153,-0.4637 7.0163,-1.8624 13.198,-5.9528 4.4441,-2.9408 9.8004,-5.8622 11.9028,-6.4921 3.3631,-1.0076 3.9531,-1.6634 4.9079,-5.4554 1.2153,-4.8262 1.396,-9.4512 0.4641,-11.8796 -0.9235,-2.4066 -5.7488,-4.5448 -10.2563,-4.5448 -3.35,0 -4.4448,0.5676 -6.9447,3.6004 l -2.9677,3.6004 -8.4335,0.072 c -6.7143,0.057 -9.3481,-0.371 -12.9207,-2.1004 -2.4681,-1.1948 -5.4854,-2.1723 -6.7053,-2.1723 -1.4615,0 -2.9008,-1.1572 -4.2198,-3.3926 -1.9179,-3.2507 -3.4219,-4.1808 -8.9227,-5.5183 -2.0458,-0.4975 -2.6484,-1.4626 -3.3661,-5.3906 -0.9899,-5.4186 0.2085,-7.5655 5.4303,-9.7284 1.6102,-0.667 2.9277,-1.5536 2.9277,-1.9701 0,-0.4165 1.3729,-1.326 3.0509,-2.0211 4.3334,-1.7949 3.5821,-4.7313 -1.9582,-7.654 -5.6446,-2.9776 -13.6662,-3.2441 -14.5425,-0.4831 -1.7728,5.5857 -13.9575,11.0173 -27.392096,12.2108 -5.3119,0.4719 -11.1206,1.1594 -12.9081,1.5277 -2.9119,0.6 -3.25,0.4326 -3.25,-1.6094 0,-1.4267 -1.5163,-3.577 -4.0544,-5.7495 -3.1315,-2.6804 -3.9851,-4.068 -3.75,-6.0959 0.2966,-2.5586 0.5211,-2.6382 8.8044,-3.1255 4.675,-0.275 9.0557,-0.8599 9.735,-1.2997 0.7662,-0.4962 1.1926,-2.9633 1.1232,-6.5 -0.0674,-3.441 0.6431,-7.6821 1.7927,-10.7003 l 1.9043,-5 6.7224,-0.2957 c 3.9616,-0.1742 6.722396,-0.7389 6.722396,-1.375 0,-0.679 1.1771,-0.8439 3.1739,-0.4445 6.2125,1.2425 12.5864,-5.8491 8.3885,-9.333 -0.9431,-0.7827 -2.9947,-0.9596 -5.9645,-0.5142 -4.4536,0.6679 -4.5549,0.6203 -6.2477,-2.9294 -1.2585,-2.6391 -2.354496,-3.6082 -4.080896,-3.6082 -1.2981,0 -3.4852,-1.125 -4.8602,-2.5 -1.375,-1.375 -3.4921,-2.503 -4.7046,-2.5066 -1.2125,0 -3.5545,-0.9006 -5.2045,-1.9934 -1.65,-1.0928 -4.2109,-1.9898 -5.691,-1.9934 -3.648,-0.01 -4.3712,-1.591 -1.4595,-3.1927 1.3137,-0.7226 4.1588,-2.29026 6.3224,-3.48366 2.1637,-1.1934 4.4573,-3.31843 5.097,-4.72243 0.6459,-1.4175 2.8253,-3.2471 4.9014,-4.1145 2.0561,-0.8591 5.5675,-3.459 7.8031,-5.7776 2.235696,-2.3187 5.631196,-4.9581 7.545696,-5.8655 23.3727,-11.0778 22.0368,-10.6061 31.6307,-11.1698 6.2082,-0.3647 10.3877,-1.1643 13,-2.4869 4.5684,-2.3131 9.9461,-3.6541 13.1915,-3.2895 7.2997,0.8201 14.54,-8.8529 9.6587,-12.904 -0.825,-0.6847 -1.5,-2.0635 -1.5,-3.064 0,-1.0437 -2.5575,-3.7871 -6,-6.436 -5.2767,-4.0603 -6,-5.0318 -6,-8.0584 0,-4.00191 0.7351,-3.78941 -13.4044,-3.87531 -11.7059,-0.0712 -14.1612,-1.1882 -8.7559,-3.98339 3.7045,-1.91566 7.1603,-7.37031 7.1603,-11.30172 0,-4.32966 -1.9218,-9.16895 -4.1052,-10.33748 -1.1895,-0.63661 -1.8948,-2.09107 -1.8948,-3.90747 0,-1.59136 -0.6684,-3.56183 -1.4854,-4.37883 C 132.77758,890.74155 124.60158,889 117.52298,889 c -6.4837,0 -20.1569,-2.16674 -32.644996,-5.17313 -7.8179,-1.88209 -10.4615,-2.04141 -23.6683,-1.42642 l -14.8675,0.69232 -1.8316,-2.63827 c -1.0074,-1.45104 -2.6192,-3.37193 -3.5817,-4.26862 -1.929,-1.79711 -2.3698,-5.18588 -0.6746,-5.18588 0.6872,0 0.9579,-2.25617 0.75,-6.25 l -0.3254,-6.25 3.9409,-0.32175 c 2.3212,-0.1895 5.1076,-1.30341 6.7794,-2.71021 3.1534,-2.65335 5.237,-3.10297 18.2486,-3.93787 7.854,-0.50395 9.3036,-0.89611 11.6609,-3.15448 2.5383,-2.43194 3.3926,-2.60108 14.981996,-2.9664 l 12.2902,-0.38742 4.0869,-4.01093 4.0868,-4.01094 11.1304,0 c 6.1217,0 11.833,-0.26965 12.6919,-0.59922 0.8588,-0.32958 2.5073,-2.12958 3.6633,-4 1.8118,-2.93152 2.6425,-3.40078 6.0203,-3.40078 l 3.9184,0 0,-5.87756 c 0,-4.20339 -0.4625,-6.26136 -1.6236,-7.22501 -1.319,-1.0947 -1.5105,-2.55815 -1.0209,-7.80155 0.3315,-3.54974 1.0099,-6.86124 1.5075,-7.35889 0.4977,-0.49765 11.4196,-0.92725 24.2709,-0.95467 12.8514,-0.0274 24.1222,-0.43867 25.0463,-0.91389 0.9241,-0.47523 1.8241,-1.87753 2,-3.11624 0.3017,-2.12449 0.8849,-2.28054 10.2855,-2.75219 9.479,-0.47558 10.0375,-0.62803 11.4329,-3.12108 1.358,-2.42621 1.2862,-2.84703 -0.9658,-5.66031 -1.4747,-1.84236 -4.6941,-3.88218 -8.1748,-5.17973 -3.1581,-1.17727 -6.2114,-3.01763 -6.7852,-4.08968 -1.4579,-2.72417 -2.664,-2.4609 -7.1045,1.5508 l -3.8741,3.5 -26.1441,0 -26.1441,0 -4.1034,3.36239 c -2.5251,2.06918 -5.2372,5.73481 -7.0515,9.53079 -2.084,4.36017 -3.6424,6.34261 -5.3161,6.76269 -1.3023,0.32685 -3.4052,2.23762 -4.6731,4.24615 -1.8081,2.86419 -3.4654,4.012 -7.6836,5.3215 -6.7657,2.10032 -20.0551,2.74606 -20.6362,1.00273 C 97.18098,809.50615 95.199784,809 92.621184,809 c -3.8577,0 -4.5775,0.36074 -5.927,2.97036 -2.0252,3.91645 -4.2863,5.00404 -9.0706,4.36309 -3.2828,-0.43979 -4.4148,-0.0926 -6.7462,2.06904 -1.7041,1.57997 -3.9604,2.59751 -5.7598,2.59751 -1.7409,0 -3.6744,0.83876 -4.6985,2.03823 -1.5062,1.7641 -2.4799,1.95274 -7.2402,1.40262 -3.025,-0.34958 -9.8565,-1.71678 -15.1812,-3.03822 -5.3247,-1.32145 -11.1225,-2.40263 -12.884,-2.40263 -1.7615,0 -4.83,-0.41594 -6.8188,-0.9243 -1.9888,-0.50837 -6.091,-1.42599 -9.116,-2.03916 -7.2647005,-1.47256 -10.3270005,-4.73029 -8.79310051,-9.35412 1.49690001,-4.51193 2.78090001,-5.58684 8.32070051,-6.96548 3.9171,-0.97484 5.0064,-1.7143 5.4751,-3.71694 0.7026,-3.00189 4.5473,-3.81162 18.6403,-3.92588 6.8635,-0.0556 9.277,-0.42324 9.6804,-1.47445 0.6591,-1.71765 9.9731,-7.98997 14.9566,-10.07219 2.0107,-0.84011 6.1295,-1.52748 9.153,-1.52748 5.2033,0 5.7265,-0.23896 9.7822,-4.4673 4.8921,-5.10043 13.4094,-9.55985 22.815296,-11.94541 8.2075,-2.08162 18.5455,-7.19162 27.3387,-13.5133 3.778,-2.71615 9.403,-5.94892 12.5,-7.18393 8.9864,-3.58363 15.2991,-7.46312 20.089,-12.34563 3.4415,-3.50807 5.1845,-4.54443 7.643,-4.54443 3.4317,0 4.3988,-1.30309 4.3988,-5.9268 0,-3.77395 -2.8531,-6.06864 -7.5787,-6.09544 -2.2769,-0.0129 -4.9492,-0.81221 -6.3724,-1.90601 l -2.4512,-1.88378 2.7012,-3.89774 c 1.9207,-2.77167 2.7113,-5.18226 2.7365,-8.34398 0.0195,-2.44544 0.6786,-5.57125 1.4646,-6.94625 2.1888,-3.82893 1.8947,-4.48464 -3.7587,-8.37822 -6.3884,-4.39991 -8.2282,-4.51474 -10.2325,-0.63871 -0.8485,1.64069 -2.885,3.67725 -4.5257,4.52568 -2.2964,1.1875 -2.9831,2.22729 -2.9831,4.51693 0,2.56946 -0.3743,2.97914 -2.75,3.00976 -3.0347,0.0391 -5.556,1.31724 -9.284,4.70647 -1.3563,1.23306 -4.0378,3.67026 -5.9589,5.41601 -2.6995,2.45305 -5.1298,3.48316 -10.6983,4.5346 -3.9629,0.74828 -8.6695,1.97614 -10.459,2.72858 -3.0272,1.27287 -3.6061,1.16915 -8.318596,-1.49037 -7.8155,-4.41083 -21.5312,-5.2927 -21.5312,-1.38438 0,2.03998 -8.5005,9.87318 -13.7603,12.68012 -2.3431,1.25044 -4.5109,3.06103 -4.8173,4.02353 -0.7471,2.34672 -3.6916,2.21504 -5.9364,-0.2655 -2.148,-2.37353 -3.1028,-10.87266 -1.7881,-15.91775 1.0537,-4.04362 7.3266,-8.80977 15.7357,-11.95603 2.9766,-1.1137 8.707,-4.13691 12.7342,-6.71826 4.795,-3.07351 8.7906,-4.85888 11.5771,-5.17296 l 4.2551,-0.4796 0,-4.78816 c 0,-6.43672 0.7277,-7.95174 3.8194,-7.95174 1.5833,0 3.404896,-0.99215 4.642996,-2.52881 1.7428,-2.16291 3.1228,-2.61894 9.5376,-3.15173 4.125,-0.34261 12.1136,-0.52357 17.7524,-0.40213 7.9404,0.171 10.586,-0.1129 11.7321,-1.25898 0.8139,-0.81388 1.954,-1.63786 2.5337,-1.83107 0.5796,-0.19321 1.6676,-2.14589 2.4178,-4.33929 1.6757,-4.8991 2.8943,-5.13871 17.8021,-3.5004 l 10.7381,1.18008 3.5947,-3.81153 c 2.9263,-3.10282 3.5237,-4.41999 3.2127,-7.08384 -0.3082,-2.63998 -0.0296,-3.2723 1.442,-3.2723 2.058,0 3.7744,-3.64504 3.7744,-8.01541 0,-1.62047 0.7105,-3.28282 1.6208,-3.79227 0.8915,-0.49888 3.029,-3.55874 4.75,-6.79969 2.4783,-4.66696 3.6851,-5.9569 5.8019,-6.2016 1.9226,-0.22224 2.9605,-1.13444 3.698,-3.25 0.9071,-2.60215 1.4922,-2.94103 5.0773,-2.94103 2.7044,0 4.7102,-0.6582 6.0312,-1.97917 1.4956,-1.49566 2.7479,-1.8254 5.1261,-1.34976 2.3463,0.46924 3.382,0.20948 4.0706,-1.02084 0.6986,-1.24843 2.3883,-1.65023 6.9395,-1.65023 9.4172,0 9.5824,-0.20722 9.6241,-12.07237 l 0.0358,-10.16054 -5.6377,0.58817 c -19.1662,1.9996 -18.5372,1.86098 -21.1531,4.66131 -1.3886,1.4865 -3.5692,3.03424 -4.8459,3.43944 -1.3218,0.41952 -2.9399,2.21744 -3.7581,4.17584 -0.7982,1.9102 -2.5234,3.8522 -3.8808,4.36827 -1.3661,0.51939 -2.7274,2.05888 -3.0868,3.49089 -0.3536,1.40896 -1.4865,3.01322 -2.5176,3.56501 -1.031,0.5518 -2.5464,2.30246 -3.3676,3.89035 -0.9549,1.84669 -2.5866,3.12728 -4.5277,3.55363 -1.9158,0.42079 -3.5711,1.70379 -4.4895,3.47979 -1.7394,3.3635 -6.9888,5.37781 -18.6784,7.16728 l -8.0713,1.23559 -2.6304,-3.17232 c -2.5985,-3.13388 -2.7516,-3.17559 -12.6304,-3.44133 l -10,-0.26901 -0.5309,-5.5 c -0.6149,-6.37099 -2.1444,-9.60347 -4.968,-10.49966 -1.4991,-0.47578 -2.0011,-1.51276 -2.0011,-4.13347 0,-7.43797 -4.066,-9.84661 -6.5571,-3.88439 -1.0025,2.39931 -2.3085,3.6834 -4.199,4.12846 -2.9281,0.68934 -6.575,2.67477 -15.003196,8.16804 -5.1601,3.36316 -8.2407,3.68443 -8.2407,0.85939 0,-0.78341 -0.675,-1.68341 -1.5,-2 -0.8997,-0.34525 -1.5144,-1.8888 -1.536,-3.85699 -0.0383,-3.49436 -2.9719,-7.75387 -6.6483,-9.65302 C 73.293284,591.50776 67.834184,591 62.363284,591 l -9.947,0 -2.7341,-3.58459 c -1.5038,-1.97152 -2.3447,-3.93365 -1.8687,-4.36028 1.0782,-0.96644 26.1562,-4.05513 32.9247,-4.05513 2.7476,0 5.9065,-0.63793 7.0196,-1.41762 1.1423,-0.80008 5.4865,-1.62752 9.972496,-1.89946 12.2556,-0.74294 14.3586,-1.42626 16.1864,-5.25935 1.4148,-2.96672 2.0838,-3.35955 6.1744,-3.6254 4.4776,-0.29101 4.595,-0.38435 4.8885,-3.88549 l 0.3006,-3.58732 -9.616,-3.80534 c -18.0504,-7.14302 -17.5522,-9.42612 2.2433,-10.28103 l 12.7712,-0.55155 5.091,-3.84372 c 3.4076,-2.57282 6.1355,-3.84372 8.2501,-3.84372 2.6298,0 3.1591,-0.38537 3.1591,-2.3 0,-3.28428 1.8479,-4.7 6.1349,-4.7 4.8914,0 8.8651,-1.56382 8.8651,-3.48882 0,-0.84607 0.5512,-2.42098 1.225,-3.49979 1.8349,-2.93824 -0.3325,-4.46809 -6.5117,-4.59616 -3.7837,-0.0784 -5.9581,0.4452 -7.9432,1.91287 -2.2356,1.65283 -4.7274,2.10301 -13.6831,2.472 -13.9619,0.57525 -15.6167,0.15498 -17.1013,-4.34329 -0.6894,-2.0891 -2.5313,-4.44988 -4.4864,-5.75045 -7.3191,-4.86866 -18.366696,-14.29669 -18.430996,-15.72897 -0.0464,-1.03523 1.621596,-1.91551 5.210996,-2.75 7.0468,-1.63833 10.7103,-1.5468 12.772,0.31907 1.5502,1.40287 2.1146,1.33324 6.0788,-0.75 3.8896,-2.04403 6.0361,-2.33361 19.5283,-2.63447 14.5157,-0.32369 15.2544,-0.44028 17.4243,-2.75 2.0344,-2.16552 3.0963,-2.41199 10.3916,-2.41199 4.4691,0 8.5532,-0.4119 9.0757,-0.91532 0.5225,-0.50343 2.075,-1.06593 3.45,-1.25 3.5941,-0.48115 3.3001,-3.90408 -0.5,-5.82121 -2.4543,-1.23819 -6.7563,-1.45812 -23.6522,-1.20918 -23.2729,0.3429 -26.3337,-0.27228 -29.8222,-5.99411 -1.11,-1.8206 -2.0198,-3.85659 -2.0219,-4.52442 -0.002,-0.66783 2.7474,-3.88959 6.1098,-7.15945 9.8013,-9.53151 7.5124,-11.09054 -16.3138,-11.11157 -14.7757,-0.013 -16.8118,-0.21391 -17.667496,-1.74295 -0.8108,-1.44886 -2.195,-1.67696 -8.5636,-1.41118 l -7.5964,0.31703 -1.4741,-3.52799 c -1.1805,-2.82525 -2.9206,-4.27818 -8.7361,-7.29423 -8.5273,-4.42244 -25.762,-20.6651 -25.762,-24.27905 0,-3.11843 2.4352,-3.55384 5.8317,-1.0427 3.1269,2.31181 5.2798,2.349 23.6683,0.40894 5.5712,-0.58779 6.1732,-0.44757 8.4243,1.96218 2.9741,3.18372 4.7374,3.26134 7.8428,0.34521 1.9122,-1.79569 3.5593,-2.25 8.156996,-2.25 6.0899,0 9.0759,-1.48052 9.0759,-4.5 0,-0.96531 -0.675,-2.31531 -1.5,-3 -2.2473,-1.86506 -1.8526,-3.26594 1.9618,-6.96295 l 3.4617,-3.35528 13.1622,1.10119 c 14.3966,1.20447 17.4707,2.57776 18.1098,8.09011 0.2154,1.85875 0.8894,2.62693 2.3045,2.62693 1.7298,0 2.0402,-0.76583 2.2975,-5.66928 l 0.2975,-5.66928 -4.5175,-3.10813 c -5.8969,-4.05715 -9.6421,-9.07702 -11.097,-14.87386 -1.4183,-5.6509 -3.6202,-6.9876 -12.9449,-7.85836 -6.0733,-0.56713 -6.703,-0.85586 -8.6155,-3.95039 -1.1348,-1.83619 -4.7973,-5.77384 -8.1387,-8.75032 -4.3679,-3.89075 -5.895796,-5.87993 -5.436296,-7.07741 0.547496,-1.42679 1.679896,-1.57527 7.896996,-1.03547 9.6337,0.83644 17.645,2.40618 20.9582,4.10663 1.4852,0.76223 3.7928,1.38587 5.1279,1.38587 1.3352,0 4.17,0.75645 6.2997,1.681 2.5628,1.11261 6.7462,1.70433 12.3721,1.75 l 8.5,0.069 0.3243,2.83209 c 0.5652,4.93464 5.1408,6.02854 21.6702,5.18072 13.2305,-0.6786 17.5055,-1.50993 17.5055,-3.40419 0,-0.45156 -1.5093,-2.79823 -3.3539,-5.21482 -4.9899,-6.53688 -5.2582,-8.23355 -1.9564,-12.37157 1.6362,-2.05065 3.7016,-3.52218 4.9437,-3.5222 1.2351,-2e-5 2.3371,-0.7794 2.6174,-1.85102 0.3265,-1.24868 1.7663,-2.05603 4.4245,-2.48111 3.8942,-0.6227 7.4201,-3.45137 8.6537,-6.94246 0.4758,-1.34631 1.2596,-1.61581 3.248,-1.11675 2.1814,0.54748 2.5616,0.34929 2.2667,-1.18159 -0.1948,-1.01168 -1.4768,-2.10259 -2.849,-2.42425 -1.5753,-0.36931 -2.6126,-1.39971 -2.8145,-2.79604 -0.3874,-2.6781 -2.2586,-3.74993 -8.1802,-4.68559 -2.475,-0.39106 -5.9495,-1.5455 -7.7212,-2.56541 -1.7717,-1.01991 -4.9217,-2.17282 -7,-2.56202 -2.0783,-0.3892 -5.2609,-1.32624 -7.0723,-2.08232 -1.8115,-0.75607 -7.6615,-2.25797 -13,-3.33754 -5.3386,-1.07958 -12.4065,-2.92812 -15.7065,-4.10787 -5.959,-2.13035 -15.861,-8.18623 -18.4127,-11.26091 -0.7327,-0.88283 -1.8396,-1.60943 -2.4597,-1.61465 -2.2038,-0.0186 -13.6276,-7.96535 -13.6276,-9.47978 0,-0.84707 -1.2674,-2.321 -2.8164,-3.27542 -4.5263,-2.78889 -21.183596,-20.80498 -21.183596,-22.91162 0,-3.92356 1.739701,-4.32368 18.798796,-4.32368 l 16.3988,0 2.8024,3 c 2.657,2.84434 3.2129,3 10.7132,3 7.6301,0 7.9894,0.10641 10.1287,3 2.1213,2.86919 2.5448,3 9.7128,3 6.9524,0 7.5596,0.17052 8.3907,2.35627 0.9832,2.5861 6.0857,3.98751 10.9651,3.01162 1.7767,-0.35533 3.1522,0.003 4.018,1.04591 1.0389,1.25185 3.393,1.5862 11.1683,1.5862 9.7885,0 9.8612,0.0181 11.3058,2.8117 1.1325,2.18988 2.5925,3.07451 6.602,4 7.122,1.64396 11.6537,1.52111 12.3661,-0.33523 0.3215,-0.83794 0.307,-3.5484 -0.0322,-6.02324 -0.5363,-3.91265 -0.875,-4.41771 -2.5968,-3.87126 -1.089,0.34565 -3.0674,0.0465 -4.3964,-0.66478 -1.871,-1.00134 -3.142,-1.03681 -5.6309,-0.15716 -2.6095,0.92231 -13.0199,1.66818 -18.3656,1.31585 -0.6332,-0.0417 -2.0655,-1.6254 -3.1829,-3.51926 -2.9855,-5.06012 -11.2412,-6.87258 -18.402,-4.04004 -1.2828,0.50743 -1.9961,0.003 -2.7321,-1.93286 -1.1502,-3.02545 -4.5437,-4.58372 -9.9819,-4.58372 -2.8262,0 -4.2311,-0.58527 -5.4009,-2.25 -3.5032,-4.98554 -4.6641,-6.02403 -6.8576,-6.13455 -2.0953,-0.10557 -2.3342,-0.68808 -2.7914,-6.80747 -0.4779,-6.39603 -0.688,-6.85285 -4.75,-10.32793 -3.1347,-2.68177 -4.25,-4.37552 -4.25,-6.45438 0,-3.01402 -4.3769,-7.61786 -10.0135,-10.53265 -1.6426,-0.84941 -2.9865,-2.11782 -2.9865,-2.8187 0,-1.74989 2.0759,-3.6762 3.95,-3.66531 0.8525,0.005 2.7553,-1.45754 4.2285,-3.25 4.669,-5.68097 11.0163,-4.21966 31.1315,7.16725 4.4537,2.52117 7.4885,3.43892 13,3.93135 6.7077,0.5993 7.2125,0.8101 7.5247,3.14239 0.4657,3.47857 1.771,4.57214 3.6229,3.03517 2.4191,-2.00762 1.8533,-3.88416 -2.4576,-8.15223 -3.2418,-3.20956 -3.9987,-4.66372 -3.9932,-7.67158 0.006,-3.2807 0.6434,-4.23353 5.4932,-8.21136 5.3713,-4.40555 5.4866,-4.60965 5.4932,-9.72432 0.006,-4.74349 -0.2573,-5.36087 -2.8623,-6.70799 -1.578,-0.81602 -9.4435,-8.36508 -17.4789,-16.77568 L 158.22118,142.5 l -0.0212,-5.57759 c -0.0136,-3.60065 -0.9072,-7.75832 -2.5211,-11.73013 -2.3237,-5.71871 -2.5,-7.33856 -2.5,-22.97241 0,-11.74879 0.3618,-17.18166 1.2,-18.01987 1.8938,-1.89377 7.7598,-1.51154 8.4409,0.55 1.7246,5.2204 6.3787,13.167742 10.2006,17.41859 3.7849,4.20973 4.8466,4.83141 8.2512,4.83141 4.0226,0 6.2067,1.47485 9.399,6.34698 0.894,1.36439 3.155,3.20653 5.0244,4.09363 4.3805,2.07868 4.687,2.67824 3.342,6.53655 -1.0886,3.12292 -0.9515,3.37478 5.2371,9.61894 7.534,7.6015 9.5794,8.524 12.0727,5.44488 1.5082,-1.8626 1.6994,-3.42681 1.2072,-9.87703 -0.4776,-6.25927 -1.1154,-8.42705 -3.48,-11.82743 -3.9761,-5.71803 -3.7484,-8.33292 1.1078,-12.72016 3.1185,-2.81742 4.8417,-3.61636 7.8,-3.61636 2.0884,0 4.2783,-0.48119 4.8664,-1.069298 0.9081,-0.90805 2.6673,-1.50736 5.443,-1.85419 1.1357,-0.1419 1.8976,-10.920182 0.9485,-13.416612 -0.6066,-1.59551 -2.0214,-2.71197 -3.9824,-3.14268 -1.902,-0.41775 -3.5168,-1.65554 -4.31,-3.30373 -0.799,-1.66031 -2.3786,-2.86338 -4.2684,-3.25094 -4.3268,-0.88736 -7.5,-2.80359 -7.5,-4.52912 0,-0.82291 -0.7875,-1.77548 -1.75,-2.11681 -2.8987,-1.02801 -5.25,-3.50978 -5.25,-5.54143 0,-2.62371 5.1447,-9.88638 9.1793,-12.95826 5.1521,-3.92277 10.9256,-6.56016 16.0395,-7.32704 l 4.6719,-0.70059 2.1791,4.63581 c 2.1258,4.52236 5.1727,7.57489 7.5609,7.57489 1.4421,0 10.3693,-8.53015 10.3693,-9.90813 0,-0.54051 1.2375,-1.57464 2.75,-2.29807 2.2427,-1.07271 2.8459,-2.14619 3.2699,-5.81961 0.3168,-2.74464 1.5864,-5.90257 3.25,-8.08362 1.5016,-1.96864 2.7301,-4.445125 2.7301,-5.503292 C 269.17888,19.371843 281.79378,5 284.44058,5 c 0.8025,0 3.117,-1.125 5.1432,-2.5 3.0435,-2.06542 4.8759,-2.5 10.5407,-2.5 6.7458,0 6.8895,0.0554 8.8746,3.419831 1.1991,2.032329 2.9635,3.5537879 4.3488,3.7499999 2.2342,0.316463 2.3357,0.703775 2.4447,9.3301691 0.097,7.68298 0.4994,9.71989 2.75,13.91948 1.4499,2.70571 2.6363,5.94142 2.6363,7.19047 0,1.49639 1.7054,3.70905 5,6.48706 4.7242,3.98354 5,4.48168 5,9.03204 0,4.7533 0.0746,4.86533 5.7315,8.6087 3.3956,2.247 8.3296,7.03895 12.1065,11.75794 7.6211,9.52208 9.1868,10.72571 13.4207,10.31711 2.9236,-0.28214 3.2738,-0.0275 3.5732,2.59734 0.1825,1.60058 0.9509,3.85493 1.7075,5.00968 0.9183,1.40148 1.0624,2.59504 0.4335,3.58986 -1.4443,2.284342 -1.1508,4.708072 0.6538,5.40058 2.5703,0.98629 4.5507,-1.325848 3.8538,-4.49913 -0.5508,-2.50752 0.5829,-3.95719 11.9555,-15.28867 7.695,-7.66715 12.564,-13.29082 12.564,-14.51145 0,-2.65437 1.2334,-3.27768 6.4861,-3.27768 2.5824,0 4.8941,-0.58657 5.5831,-1.41666 0.6466,-0.77917 1.8097,-1.41667 2.5846,-1.41667 0.7749,0 1.668,-0.675 1.9846,-1.5 0.3166,-0.825 1.4274,-1.5 2.4686,-1.5 1.7127,0 1.8935,0.83333 1.8982,8.75 0.003,4.8125 0.2903,13.05616 0.6389,18.31924 l 0.6338,9.56924 -3.6999,2.18299 c -3.6231,2.137692 -3.6857,2.277702 -3.0154,6.74714 0.6175,4.11818 0.4075,4.85314 -2.1493,7.52184 -2.472,2.58021 -2.7013,3.30821 -1.7969,5.70411 1.1665,3.09062 0.7888,5.18083 -0.9497,5.25565 -0.6417,0.0276 -6.2964,4.92794 -12.5661,10.88961 -12.0144,11.42431 -12.8305,13.07177 -7.4824,15.10512 1.4682,0.5582 7.3411,0.85348 13.051,0.65617 l 10.3815,-0.35875 5.0546,-5.67118 c 4.7199,-5.2956 5.3508,-5.67118 9.5257,-5.67118 4.0952,0 4.5868,-0.27322 5.8478,-3.25 0.7572,-1.7875 2.3093,-3.81631 3.449,-4.50847 1.1488,-0.69771 2.0722,-2.30279 2.0722,-3.60212 0,-3.18175 3.8283,-8.63503 7.6142,-10.8461 2.6034,-1.52044 4.2249,-1.69143 9.9966,-1.05407 l 6.8892,0.76076 0,10 c 0,9.68859 -0.072,10.0102 -2.3119,10.32767 -3.7025,0.52475 -6.18,5.69395 -6.1844,12.90328 -0.003,5.78374 -0.1802,6.27525 -2.4634,6.84829 -2.3061,0.57879 -2.4778,1.08872 -2.75,8.16395 -0.2981,7.74874 -0.5651,8.24095 -5.2903,9.75213 -1.8467,0.59061 -1.7502,0.84521 1.259,3.32215 1.7925,1.47539 3.255,3.25915 3.25,3.96391 -0.0274,3.89734 8.8193,0.18206 12.3319,-5.17896 1.4096,-2.15122 2.4688,-2.60242 6.1097,-2.60242 3.7118,0 4.7761,-0.47487 6.7677,-3.01969 l 2.3633,-3.01969 22.4592,0.26969 22.4592,0.26969 0.3036,4.16976 c 0.2681,3.68236 -0.0134,4.32524 -2.4078,5.5 -1.4912,0.73163 -3.0194,2.00524 -3.3959,2.83024 -2.0516,4.4956 -2.9052,5.50551 -5.0893,6.0211 -1.3225,0.3122 -2.5583,1.44486 -2.7524,2.52275 -0.5818,3.2305 -1.9052,3.92952 -4.654,2.45838 -2.1979,-1.17624 -3.0274,-1.12315 -6.2171,0.3979 -2.2558,1.0757 -7.1857,1.964 -12.7339,2.29446 -9.7561,0.58108 -11.5532,1.54532 -11.5532,6.19893 0,1.46492 -1.3188,3.87192 -3.1652,5.77688 -3.7316,3.85008 -4.0708,3.67176 10.0433,5.28018 l 10.3781,1.18268 4.9613,-5.06663 c 3.3733,-3.44494 5.7707,-5.06663 7.4899,-5.06663 1.3907,0 4.0661,-1.35 5.9454,-3 3.3702,-2.95907 3.5727,-3 14.8468,-3 13.6776,0 13.5004,-0.16276 13.5004,12.39907 0,7.14815 -0.2878,8.68458 -1.7758,9.48095 -1.0358,0.55435 -2.4261,0.58647 -3.3364,0.0771 -1.1431,-0.63972 -2.741,0.19778 -5.9741,3.13114 -4.2304,3.83815 -4.4137,4.24038 -4.4137,9.68555 0,5.5222 -0.0836,5.69594 -2.9878,6.21136 -1.9547,0.3469 -3.112,1.21914 -3.3471,2.52255 -0.5772,3.20098 -1.2091,3.40656 -11.1778,3.63626 -7.3922,0.17033 -10.0139,0.62023 -11.8722,2.03732 -1.4394,1.09776 -4.0666,1.81871 -6.6275,1.81871 -4.5633,0 -6.8781,1.72512 -6.3091,4.70196 0.3096,1.6194 1.9819,1.84772 16.8326,2.29804 l 16.4889,0.5 3.029,-3.15559 c 2.2983,-2.39426 4.2284,-3.31358 8,-3.81042 6.9366,-0.91375 9.2652,-2.05526 9.644,-4.72749 l 0.327,-2.3065 19,0 19,0 0.2972,5.10406 c 0.2638,4.53065 0.011,5.29157 -2.25,6.77306 -2.0427,1.33843 -2.5472,2.47944 -2.5472,5.76106 0,3.347 -0.6082,4.66287 -3.3402,7.22695 -1.8371,1.72418 -3.617,3.90694 -3.9554,4.85059 -0.5203,1.45081 -2.2749,1.75961 -11.3644,2 l -10.7491,0.28428 -1.7583,4.92017 c -2.9557,8.27068 -8.925,14.47498 -16.3904,17.03546 -3.0763,1.05509 -4.0525,1.96748 -4.4443,4.15364 -0.6222,3.4715 -2.8023,4.16238 -13.4979,4.2774 -9.9475,0.10696 -12.4146,-0.53195 -13.5461,-3.50802 -0.9282,-2.44118 -6.5266,-5.41269 -8.7039,-4.61984 -2.9535,1.07548 -0.541,6.24119 2.9148,6.24119 0.9707,0 2.2465,0.9 2.8352,2 0.5887,1.1 2.0895,2 3.3352,2 2.9861,0 4.6648,1.79931 4.6648,5 0,3.28883 -1.6918,4.99896 -4.95,5.00374 -3.6671,0.005 -8.8902,3.51145 -9.6316,6.46524 -0.548,2.18367 -1.1877,2.53102 -4.6608,2.53102 -2.2141,0 -5.7226,-0.50845 -7.7968,-1.1299 -3.0087,-0.90143 -5.2307,-0.80033 -10.9887,0.5 -8.1627,1.84336 -20.7316,2.14949 -24.175,0.58881 -1.4214,-0.64419 -3.822,-0.72454 -6.2971,-0.21076 -3.6987,0.76778 -4.0231,1.10489 -4.3065,4.47568 -0.2392,2.84529 0.1449,3.88692 1.75,4.74595 1.1311,0.60532 2.0565,0.83431 2.0565,0.50887 0,-0.32545 1.3263,0.19175 2.9473,1.14932 2.434,1.43775 3.4003,1.5347 5.5471,0.55654 3.2421,-1.47718 9.5341,-1.49924 22.5875,-0.0792 11.4692,1.24771 13.9537,0.66236 16.1123,-3.79609 l 1.36,-2.80924 10.9729,0 c 8.9729,0 11.702,-0.36453 14.9729,-2 3.7611,-1.88054 6.0502,-2.00268 38.3246,-2.04485 32.0197,-0.0419 34.3891,0.0757 35.2852,1.75 0.7245,1.35383 2.1718,1.79485 5.8902,1.79485 3.9073,0 5.1518,0.41506 6.0007,2.00135 0.5891,1.10074 3.305,3.13332 6.0352,4.51684 4.693,2.37811 4.9641,2.73179 4.9641,6.4756 0,5.0705 3.2938,7.50621 10.1505,7.50621 3.9914,0 5.267,-0.51235 8.0916,-3.25 2.5299,-2.45212 4.2429,-3.25 6.9776,-3.25 3.0131,0 4.2237,-0.70005 7.1767,-4.15 2.7487,-3.21126 4.2902,-4.17262 6.8144,-4.25 2.5324,-0.0776 3.5611,-0.72346 4.5978,-2.88657 1.3344,-2.78409 1.3438,-2.78632 10.5135,-2.5 l 9.1779,0.28657 0,5.5 0,5.5 -4.3045,0.31016 c -2.4261,0.17482 -4.5285,0.89407 -4.8179,1.64829 -0.2825,0.73598 -3.1558,3.45748 -6.3854,6.04777 -3.2295,2.5903 -6.3255,6.01107 -6.88,7.60171 -0.5545,1.59064 -1.7053,2.89207 -2.5573,2.89207 -0.852,0 -3.3271,1.60624 -5.5001,3.56942 -3.3477,3.02447 -3.997,4.26838 -4.2528,8.14751 -0.2585,3.91889 -0.8442,5.01579 -4.0675,7.618 -3.6593,2.95419 -4.1039,3.04897 -15.7627,3.36062 -9.0188,0.24109 -12.8932,-0.0537 -15.6066,-1.18742 -3.8588,-1.61232 -8.559,-1.98096 -9.7735,-0.76654 -0.4078,0.40787 -3.2879,1.64537 -6.4002,2.75 -5.3057,1.88313 -5.6975,2.24721 -6.2804,5.83658 -0.6934,4.27008 0.779,9.56696 3.4933,12.56617 0.9853,1.0888 1.517,2.42388 1.1814,2.96684 -0.3831,0.61991 -6.1228,0.77535 -15.4266,0.41778 l -14.8166,-0.56943 -2.1467,3.47353 c -2.4098,3.89915 -5.9907,5.94488 -9.0195,5.15282 -2.3887,-0.62466 -4.4858,2.80548 -6.4806,10.59992 -1.0251,4.00593 -2.0922,5.56875 -5.4759,8.01985 -3.7349,2.70556 -4.9853,3.04435 -11.236,3.04435 -6.4739,0 -7.1049,-0.18801 -7.932,-2.36362 -1.3338,-3.50801 -3.4464,-4.0084 -15.6513,-3.70707 l -11.0994,0.27404 -3.5326,-3.10168 c -4.2609,-3.74109 -7.0454,-3.9158 -10.3141,-0.64712 -2.6672,2.66724 -2.9485,4.11587 -1.5259,7.85763 1.1931,3.13809 5.6828,4.68782 13.5811,4.68782 4.9762,0 6.9437,0.49707 9.8952,2.5 4.0165,2.72572 6.6438,3.11102 9.4146,1.38066 1.4114,-0.88141 2.7369,-0.64487 6.2364,1.11285 2.4443,1.22771 5.3441,3.03198 6.4441,4.00949 1.1,0.97752 4.5126,3.10296 7.5835,4.7232 3.071,1.62024 8.0675,4.59467 11.1035,6.60984 3.036,2.01518 6.0201,3.66396 6.6313,3.66396 0.6112,0 1.613,0.9373 2.2261,2.0829 0.9904,1.85068 1.6911,2.0073 6.2851,1.40487 2.8438,-0.37291 7.0506,-1.76021 9.3486,-3.0829 4.0716,-2.34359 4.7479,-2.40487 26.5418,-2.40487 l 22.3637,0 4.1414,4.25 c 2.9583,3.03594 4.2319,5.24981 4.4582,7.75 0.2908,3.21326 0.5626,3.48108 3.3168,3.26909 16.9797,-1.30693 21.8966,-1.36859 28.401,-0.35613 6.9289,1.07855 7.5389,1.02239 9.5644,-0.88047 1.3215,-1.24146 3.5212,-2.03249 5.652,-2.03249 2.2869,0 4.8652,-1.01236 7.4849,-2.93894 2.5912,-1.90558 5.8132,-3.17994 9.1635,-3.62438 3.8823,-0.515 5.5542,-1.27619 6.7237,-3.06107 1.1709,-1.78696 2.4665,-2.37561 5.2288,-2.37561 2.6141,0 4.4729,-0.76701 6.4505,-2.66174 2.0738,-1.98685 3.8626,-2.68411 7.0547,-2.75 l 4.2765,-0.0883 0.2981,5.68908 c 0.2659,5.07426 0.0497,5.81933 -2,6.89424 -1.264,0.66284 -5.0489,3.3799 -8.411,6.03791 -5.9527,4.70617 -14.0818,7.87877 -20.1874,7.87877 -1.393,0 -3.472,1.2443 -5.0126,3 -1.9103,2.17703 -3.5233,3 -5.8798,3 -2.4459,0 -3.7928,0.73761 -5.4568,2.98835 -1.4512,1.96282 -3.4347,3.20634 -5.7799,3.62355 -1.9639,0.34936 -4.6182,1.5921 -5.8986,2.76165 -1.7149,1.5664 -4.0763,2.25814 -8.9663,2.62645 -6.2466,0.4705 -6.7765,0.70648 -8.9829,4 -2.3154,3.45606 -2.4916,3.52091 -14.0338,5.16585 -6.429,0.91622 -14.2608,1.70372 -17.4042,1.75 -4.9724,0.0732 -6.154,-0.30115 -9.0916,-2.88039 -1.8571,-1.63049 -4.6382,-3.44426 -6.1804,-4.03059 l -2.8039,-1.06606 2.1455,-2.28386 c 2.6881,-2.86135 2.7085,-4.28331 0.0817,-5.68916 -2.2271,-1.19192 -4.9361,0.16287 -4.9361,2.4686 0,0.65422 -1.3726,2.20431 -3.0503,3.44465 -1.6776,1.24033 -3.469,3.35665 -3.9809,4.70293 -0.8405,2.21079 -1.3222,2.38516 -4.9752,1.80101 -3.1798,-0.50846 -4.4856,-0.24435 -6.1066,1.23513 -1.134,1.03504 -3.9329,2.3529 -6.2198,2.92857 -5.3301,1.34181 -5.905,3.7299 -1.4794,6.14548 3.0264,1.65187 7.4812,1.85098 51.6351,2.30784 l 48.323,0.5 2.677,3.21844 c 1.4724,1.77014 3.7539,3.60387 5.0701,4.07496 1.4636,0.52387 2.8229,2.17094 3.5,4.24086 0.761,2.32661 1.8883,3.56614 3.607,3.96603 1.592,0.37043 2.6172,1.39296 2.8228,2.81534 0.1775,1.2285 1.3457,2.90386 2.5959,3.72303 1.2502,0.81916 2.7623,2.56325 3.3604,3.87576 0.632,1.3871 2.6068,2.88786 4.7161,3.58399 3.5415,1.16881 6.2314,5.01688 4.9529,7.08551 -0.3114,0.50384 -3.7475,0.91608 -7.6359,0.91608 -6.6752,0 -7.286,-0.19536 -10.9439,-3.5 -2.1307,-1.925 -4.9359,-3.5 -6.2337,-3.5 -1.2978,0 -4.0583,-1.35 -6.1346,-3 -5.0175,-3.98739 -9.5515,-3.98739 -15.8389,0 -3.9773,2.5223 -5.7424,3 -11.085,3 -4.6604,0 -6.9551,0.48633 -8.6072,1.82414 -2.1406,1.73335 -2.1908,2.08232 -1.0083,7.01162 1.3931,5.807 0.9269,8.16424 -1.6148,8.16424 -0.9443,0 -2.6459,0.86103 -3.7813,1.9134 -1.6548,1.53365 -4.2692,2.05354 -13.1725,2.61945 l -11.108,0.70605 -2.7607,-3.61945 c -3.4238,-4.4889 -6.1202,-4.73121 -7.0208,-0.63092 -1.0064,4.58232 -2.5512,4.71975 -6.1575,0.54781 -2.9648,-3.42975 -3.6463,-3.74914 -6.8797,-3.22443 -1.9738,0.32032 -5.2485,1.39368 -7.2771,2.38524 -2.9469,1.44051 -3.7503,2.44473 -3.9974,4.99658 -0.2583,2.66909 0.1714,3.44223 2.6163,4.70654 1.9059,0.98557 3.1342,2.55611 3.5242,4.50627 0.4275,2.1375 1.7503,3.65112 4.626,5.29346 4.1801,2.38728 5.1254,3.8 2.5427,3.8 -1.7958,0 -1.9181,2.50209 -0.3432,7.0199 1.0675,3.06241 0.9519,3.48173 -1.5,5.43679 -3.418,2.72537 -3.3459,4.25161 0.4162,8.81567 l 3.0729,3.72804 6.7872,-0.6308 c 3.7329,-0.34694 10.2876,-0.30278 14.5659,0.0981 6.4902,0.60818 8.1641,1.14467 10.1048,3.23874 1.7694,1.90927 4.1478,2.82618 9.9399,3.83199 4.1876,0.72719 8.5909,2.04281 9.7851,2.92359 1.1941,0.88079 3.6273,2.52782 5.407,3.66008 2.1026,1.33773 3.5946,3.34022 4.2604,5.71826 0.5635,2.01278 2.5949,6.11375 4.5142,9.11326 1.9193,2.99952 3.4979,5.92452 3.508,6.5 0.0101,0.57549 2.1203,2.39634 4.6891,4.04634 3.5727,2.29474 4.9966,3.99335 6.0568,7.22551 0.8766,2.67239 2.7645,5.31725 5.1363,7.1958 3.3152,2.62565 6.0994,8.0249 6.0994,11.82813 0,1.80736 -5.145,2.07852 -19.3231,1.01838 -12.2251,-0.9141 -14.2988,-0.8417 -17.3328,0.60515 l -3.4464,1.64347 -5.1989,-4.79804 c -2.8593,-2.63892 -6.823,-5.99222 -8.8081,-7.45177 -1.9851,-1.45956 -4.3747,-4.36664 -5.3103,-6.46018 -3.5473,-7.93811 -5.3387,-10.44121 -8.6578,-12.09803 -2.8388,-1.41701 -3.6313,-2.5613 -4.6463,-6.70842 -1.9855,-8.11256 -8.6817,-11.72318 -9.953,-5.36672 -0.3718,1.8593 -1.3781,3.32981 -2.475,3.61663 -3.3939,0.88754 -2.1703,4.07334 2.0502,5.33784 3.1968,0.95777 4.1839,1.89428 5.4833,5.20233 0.8716,2.21886 3.4427,7.10936 5.7136,10.86776 3.4674,5.73875 4.0256,7.38344 3.4848,10.26646 -0.9722,5.18215 -3.349,7.14863 -11.5681,9.57096 -11.7449,3.46144 -15.0121,5.44648 -15.0121,9.12077 0,1.69146 0.772,4.38232 1.7156,5.97968 1.3895,2.35217 2.4016,2.90429 5.324,2.90429 2.5134,0 5.0891,1.05274 8.4879,3.46925 3.0158,2.14414 6.6162,3.71599 9.4261,4.11523 2.5005,0.35528 6.9798,1.26295 9.9539,2.01704 2.9741,0.75409 13.4307,1.67228 23.237,2.04042 17.1998,0.64572 17.8832,0.75141 19.3519,2.9929 2.5997,3.96771 7.0882,5.64751 13.0874,4.89796 7.3781,-0.92183 9.2297,0.27527 9.6117,6.2142 0.2456,3.81959 0.6912,4.80385 2.3045,5.09107 5.0321,0.89586 3.6322,5.16193 -1.6939,5.16193 -1.6219,0 -3.624,0.675 -4.449,1.5 -0.825,0.825 -2.3902,1.5 -3.4782,1.5 -3.1469,0 -7.8837,2.89009 -7.8273,4.77568 0.0284,0.94838 1.8771,3.18682 4.1082,4.97432 3.708,2.97084 4.7129,3.2662 11.6983,3.43858 17.2369,0.42537 16.871,0.36738 20.687,3.27799 2.0169,1.53839 4.2645,4.22694 4.9947,5.97455 0.7302,1.74761 2.4825,3.70364 3.8939,4.34674 1.4115,0.64309 2.5663,1.57025 2.5663,2.06035 0,1.34544 -20.3241,5.35954 -23.324,4.6066 -1.4324,-0.3595 -2.8626,-1.46733 -3.1782,-2.46184 -0.9282,-2.9244 -3.1214,-3.32176 -20.8114,-3.77056 -16.6483,-0.42237 -16.8225,-0.45013 -17.725,-2.82403 -1.4839,-3.90293 -6.7578,-6.61184 -11.4614,-5.88711 -7.6604,1.1803 -10.8139,0.59083 -13.691,-2.55926 -3.1443,-3.44252 -7.6082,-3.93634 -10.154,-1.12327 -2.1855,2.41494 -2.0885,3.86889 0.345,5.17126 1.1,0.5887 2,1.91705 2,2.95189 0,1.31887 1.8908,2.80266 6.3229,4.96182 3.4775,1.69416 7.3539,4.17785 8.6142,5.51931 1.2602,1.34146 5.2774,3.67419 8.9271,5.18384 3.6497,1.50964 7.5358,3.49235 8.6358,4.40602 1.1,0.91367 4.925,3.32572 8.5,5.36013 15.5111,8.8268 32.2355,21.72732 45,34.71123 9.194,9.35199 19.5111,21.7039 21.0629,25.21707 0.5317,1.20378 1.8272,3.53869 2.8789,5.18869 1.0516,1.65 1.9449,3.57364 1.9851,4.27475 0.098,1.7097 -4.0238,3.17494 -9.5158,3.38267 -3.921,0.14831 -4.9629,-0.28927 -8.2013,-3.44449 -3.3097,-3.22455 -4.4648,-3.68991 -10.7098,-4.31464 -5.4019,-0.54039 -7.4841,-1.21641 -9.1206,-2.96115 -1.4661,-1.56314 -3.8172,-2.47286 -7.618,-2.94775 -7.5442,-0.94258 -9.2506,-0.47464 -9.3134,2.55406 -0.0818,3.94732 -1.0013,4.62441 -7.167,5.2775 -3.1795,0.3368 -7.1783,0.89558 -8.8862,1.24174 -3.0457,0.61733 -3.1559,0.5028 -5.75,-5.97717 -2.0344,-5.08175 -2.6448,-8.33127 -2.6448,-14.0792 l 0,-7.47263 -4.75,-2.37928 c -6.4605,-3.23606 -16.8967,-5.05394 -23.9529,-4.17233 -4.5869,0.5731 -6.3306,1.35142 -8.9936,4.01443 -2.8477,2.84769 -3.2981,3.97267 -3.2645,8.15349 0.0367,4.56549 0.2999,5.04191 4.4863,8.12137 4.8756,3.58643 6.1967,6.71982 4.8351,11.46769 -1.0146,3.53761 -2.0955,3.98202 -13.8604,5.6988 -7.6929,1.12259 -8.2495,1.06644 -14.5,-1.46266 -3.575,-1.44653 -8.5836,-3.27163 -11.1302,-4.05578 -2.5466,-0.78415 -5.2466,-2.17092 -6,-3.08171 -0.7534,-0.91079 -3.3948,-2.59768 -5.8698,-3.74865 -2.475,-1.15096 -6.075,-3.27193 -8,-4.71326 -1.925,-1.44132 -4.85,-3.04463 -6.5,-3.56289 -1.65,-0.51826 -3.4436,-1.92431 -3.9858,-3.12455 -0.6634,-1.46843 -3.0416,-2.86636 -7.2706,-4.27369 -5.0572,-1.68291 -7.3997,-3.24617 -11.9927,-8.00305 -3.1394,-3.25139 -6.2398,-5.91162 -6.8899,-5.91162 -3.3068,0 -23.3054,-12.98979 -28.2732,-18.36442 -1.6937,-1.83249 -3.857,-2.80139 -7.2637,-3.2533 -4.0242,-0.53384 -4.9541,-1.05213 -5.4529,-3.03931 -0.847,-3.37492 -3.2626,-4.34297 -10.8368,-4.34297 -5.4103,0 -6.6945,-0.31482 -7.1379,-1.75 -1.648,-5.33309 -5.4083,-6.96502 -7.4139,-3.21754 -1.8238,3.40794 -0.4111,6.93183 3.057,7.62547 2.0248,0.40496 3.1747,1.34791 3.5715,2.92865 0.3218,1.28226 1.1908,2.83401 1.931,3.44834 1.0312,0.85582 1.092,1.67409 0.26,3.50005 -0.8571,1.88107 -0.7312,2.92434 0.5976,4.95231 0.9259,1.41307 1.4344,2.97209 1.1301,3.46451 -0.3043,0.49241 -2.9105,1.66001 -5.7916,2.59467 -2.881,0.93466 -5.6114,2.03978 -6.0676,2.45582 -0.4561,0.41605 -0.2609,3.20153 0.4339,6.18996 1.5907,6.84193 3.2033,7.69259 16.1111,8.49884 8.4711,0.52912 9.9986,0.90802 11.9243,2.95789 1.3835,1.47263 3.3579,2.35468 5.2844,2.3608 4.9355,0.0157 13.3848,4.4711 15.3531,8.09593 2.3035,4.24206 9.8943,11.8943 11.7989,11.8943 2.8378,0 33.8541,14.03819 36.3976,16.47382 3.1152,2.9831 9.7594,5.91284 17.0261,7.50765 7.4141,1.62716 15.7008,4.75811 20.2286,7.64292 2.6659,1.69854 5.1742,2.37561 8.8009,2.37561 4.5705,0 5.42,0.37108 8.5843,3.75 1.9315,2.0625 4.8552,5.6625 6.497,8 2.3644,3.366 3.5993,4.25 5.9372,4.25 2.6787,0 6.1201,2.28327 7.077,4.69528 0.2062,0.5199 2.1727,1.81365 4.3698,2.875 4.451,2.15005 7.0264,6.87155 4.5747,8.38676 -2.0431,1.26273 -24.0408,2.35464 -31.2496,1.55115 -3.4759,-0.38743 -8.2896,-1.56026 -10.697,-2.6063 -5.8128,-2.5257 -7.5658,-2.40105 -9.5857,0.68164 -4.4233,6.75077 -20.4266,7.34407 -23.3779,0.86669 -0.614,-1.34762 -1.5645,-2.45022 -2.1122,-2.45022 -0.5476,0 -1.6671,-1.29836 -2.4878,-2.88525 -0.8206,-1.58689 -3.5985,-4.11973 -6.173,-5.62854 -4.4839,-2.62772 -4.7972,-2.67468 -7.438,-1.11475 -1.5163,0.8957 -3.4446,1.62854 -4.2852,1.62854 -1.6817,0 -3.1561,3.3933 -2.1686,4.99105 0.3429,0.55492 2.757,1.00895 5.3645,1.00895 5.2417,0 7.141,1.24559 7.141,4.68315 0,1.73276 1.1954,2.8889 4.9586,4.79585 4.1474,2.10171 5.1582,3.17871 6.1782,6.58341 1.3551,4.5229 3.8686,6.2868 10.5371,7.3944 2.79,0.4634 5.343,1.8288 7.7004,4.1182 2.6437,2.5676 4.3973,3.425 7.0047,3.425 4.2804,0 6.3367,1.9321 7.2181,6.7821 1.0131,5.5753 5.0648,12.963 8.1606,14.8799 4.0055,2.4802 5.2423,4.3347 5.2423,7.8601 0,2.5903 1.2941,4.3947 7.3934,10.3089 8.2536,8.0031 10.7185,8.7871 13.1066,4.169 1.2886,-2.492 2.1621,-3 5.1576,-3 4.8089,0 8.5566,2.5412 16.3424,11.08102 7.3111,8.01916 10.464,9.92166 20.5,12.36986 3.85,0.9392 8.575,2.7519 10.5,4.0283 1.925,1.2764 4.625,2.6458 6,3.0431 3.667,1.0597 5,2.426 5,5.1249 0,3.1889 -3.244,4.3528 -12.1323,4.3528 -6.7069,0 -7.1411,0.1475 -10.3029,3.5 l -3.301,3.5 -10.1903,0 c -5.6047,0 -13.3731,-0.4938 -17.2631,-1.0974 -6.444,-0.9998 -7.3054,-0.9243 -9.6915,0.8496 -2.3024,1.7117 -2.7398,3.0092 -3.6189,10.736 -1.1287,9.9199 -0.9533,9.7411 -10.7342,10.9456 -3.1539,0.3884 -6.016,1.162 -6.3603,1.7192 -0.3444,0.5571 -3.0515,2.5644 -6.0158,4.4607 -5.154,3.297 -5.3897,3.6364 -5.3897,7.762 0,4.7349 2.1679,7.6243 5.7206,7.6243 1.1347,0 4.3154,-2.025 7.0682,-4.5 2.7528,-2.475 5.9681,-4.5 7.1452,-4.5 1.2768,0 4.4444,2.3208 7.853,5.7536 3.1422,3.1646 7.5954,6.5943 9.8961,7.6218 l 4.1832,1.8681 4.4889,-3.6784 c 2.469,-2.0231 5.1539,-4.6931 5.9665,-5.9334 2.3133,-3.5304 8.0576,-4.6317 24.159,-4.6317 13.6634,0 15.0897,0.1782 19.384,2.4223 2.5494,1.3323 6.9606,2.9432 9.8026,3.5799 5.7341,1.2846 9.7355,4.5128 7.3904,5.9622 -1.0496,0.6487 -1.2111,2.4754 -0.7025,7.9481 l 0.6605,7.1058 -5.7579,2.5822 c -3.1668,1.4201 -6.8828,2.5278 -8.2578,2.4614 -6.9316,-0.3347 -11.3969,-0.04 -11.9193,0.7874 -0.3194,0.5056 -1.4641,1.0869 -2.5438,1.2916 -1.5017,0.2848 -2.4939,2.2248 -4.221,8.2533 -1.2418,4.3346 -2.5175,8.1408 -2.8349,8.4582 -0.3174,0.3174 -4.043,0.4518 -8.2791,0.2987 -5.7163,-0.2066 -8.2175,0.1165 -9.7019,1.2534 -2.5165,1.9275 -4.4068,1.9834 -6.4213,0.19 -0.8683,-0.7731 -5.5091,-2.5982 -10.313,-4.0558 -8.8056,-2.6718 -11.7657,-4.4668 -11.7657,-7.1349 0,-2.1524 -4.904,-3.6572 -9.7903,-3.0043 -5.8019,0.7753 -8.2097,2.2272 -8.2097,4.9505 0,1.5607 -1.0248,2.809 -3.25,3.9586 -1.7875,0.9235 -3.925,2.1033 -4.75,2.6218 -2.7518,1.7295 -8.2909,4.0696 -9.633,4.0696 -0.7292,0 -3.2355,-2.0718 -5.5696,-4.6039 l -4.2437,-4.6039 -5.5268,0.6053 c -8.264,0.9052 -11.4134,-0.2638 -12.0323,-4.4659 -0.5034,-3.418 -0.5245,-3.4304 -5.3274,-3.1234 -5.4932,0.3511 -7.2661,-0.7056 -8.1824,-4.8773 -0.5258,-2.3942 -1.1589,-2.9309 -3.4573,-2.9309 -4.2118,0 -5.0717,4.0326 -2.9598,13.8801 1.4019,6.5367 4.6043,8.8876 10.1062,7.419 3.1391,-0.8379 4.3065,-0.6851 6.9223,0.9056 2.8079,1.7076 3.0853,2.2891 2.5795,5.4066 -0.425,2.6186 -0.1741,3.6439 1.002,4.0952 1.8245,0.7002 6.6328,10.9821 5.7805,12.3611 -0.3169,0.5128 -1.3947,0.9324 -2.3951,0.9324 -1.0004,0 -3.5272,0.7138 -5.6152,1.5862 -3.5939,1.5017 -3.9943,1.475 -7.5083,-0.5 -4.9266,-2.7689 -6.1531,-2.6413 -8.7815,0.9138 -2.1893,2.9612 -2.3389,3 -11.5656,3 -9.9719,0 -10.9025,0.4025 -12.1167,5.2406 -0.57,2.271 -0.2896,2.8794 1.6696,3.623 1.295,0.4915 4.7517,0.6627 7.6814,0.3804 5.136,-0.4948 5.4315,-0.3864 8.2451,3.027 2.8659,3.477 3.0236,3.5307 8.8155,3.0055 5.5379,-0.5022 6.0022,-0.3745 7.62,2.0944 2.3652,3.6098 3.7463,3.3135 7.0978,-1.5227 3.517,-5.0751 7.4822,-6.8482 15.3146,-6.8482 5.9543,0 5.9993,0.022 9.0367,4.4368 3.4601,5.0291 10.253,10.932 14.3907,12.5051 1.5306,0.582 6.1171,1.0581 10.1922,1.0581 7.1258,0 7.4653,0.1085 8.8758,2.836 l 1.4665,2.836 47.3047,0.6616 c 31.9085,0.4463 51.798,0.2958 61.1101,-0.4624 l 13.8054,-1.1241 3.8904,3.1265 c 2.1397,1.7195 4.6669,3.1264 5.6159,3.1264 1.9332,0 19.9244,9.3405 22.6418,11.7551 2.2802,2.026 2.2802,6.8998 0,8.0815 -0.9625,0.4988 -7.5572,0.8339 -14.655,0.7446 -12.1118,-0.1524 -12.9951,-0.2982 -14.372,-2.3718 -1.825,-2.7486 -4.35,-2.8369 -5.9909,-0.2094 -0.8644,1.384 -2.3321,2 -4.7653,2 -2.8072,0 -3.7033,0.4919 -4.4437,2.4392 -1.3271,3.4907 -3.9984,4.5608 -11.3848,4.5608 -5.735,0 -6.7228,-0.2919 -8.4596,-2.5 -3.2493,-4.1308 -4.1787,-3.1272 -4.1787,4.5124 l 0,7.0124 -5.75,3.709 c -5.0601,3.2639 -6.6499,3.7567 -13.25,4.1073 -6.5349,0.3471 -7.9227,0.769 -10.7848,3.2787 -2.9634,2.5984 -3.9839,2.8802 -10.4295,2.8802 -4.6352,0 -9.3453,0.7433 -13.4097,2.1162 -6.2465,2.11 -6.2725,2.1104 -8.7744,0.1424 -1.9732,-1.5522 -3.558,-1.8731 -7.4176,-1.5023 -4.687,0.4504 -5.0326,0.3087 -7.6649,-3.1423 -2.2897,-3.0021 -3.3818,-3.614 -6.4497,-3.614 -2.9441,0 -4.1432,-0.6086 -5.9113,-3 -1.9912,-2.6933 -2.7737,-3 -7.6529,-3 -6.0477,0 -7.5052,1.3397 -7.5052,6.8991 0,4.0333 -2.2542,5.1009 -10.7705,5.1009 l -6.9019,0 -3.9138,-4.9767 c -4.5005,-5.7228 -6.6929,-6.0299 -7.4138,-1.0383 -0.6437,4.4575 -3.5981,5.9809 -11.636,6.0003 l -6.1361,0.015 -4.1367,-6.9631 c -4.9259,-8.2916 -14.4511,-20.4791 -18.9914,-24.2995 -5.0925,-4.2851 -7.5119,-4.4608 -11.6303,-0.8447 -1.9465,1.709 -3.8852,3.1073 -4.3081,3.1073 -0.423,0 -2.2814,-1.5604 -4.1299,-3.4675 -3.2358,-3.3385 -3.5685,-3.446 -8.9461,-2.8922 -5.3734,0.5534 -5.672,0.4572 -7.8653,-2.5325 -1.7736,-2.4175 -3.0329,-3.1078 -5.6701,-3.1078 -2.8622,0 -4.18,-0.8864 -8.464,-5.6929 l -5.074,-5.6928 -2.756,2.6392 c -2.3012,2.2037 -3.8287,2.6894 -9.256,2.9429 -4.9762,0.2324 -6.5,0.6553 -6.5,1.8036 0,1.1799 1.6625,1.5625 7.791,1.7928 7.0988,0.2668 7.8694,0.499 8.6734,2.6136 1.1615,3.0549 3.2869,3.7618 9.0229,3.0009 5.7605,-0.7642 9.0127,0.7012 9.0127,4.0609 0,3.3371 -7.793,9.6187 -12.4726,10.0536 -2.5209,0.2343 -4.316,1.262 -6.2788,3.5946 -1.5117,1.7966 -2.7486,3.7429 -2.7486,4.3251 0,0.6519 3.6493,1.1599 9.5,1.3224 8.9923,0.2498 9.6196,0.4102 11.7376,3 2.0499,2.5065 2.7495,2.7142 8.3381,2.4746 5.6513,-0.2422 6.3075,-0.04 8.9136,2.75 2.4761,2.6508 3.4796,3.0115 8.3771,3.0115 4.7563,0 6.06,0.4355 8.9808,3 2.9794,2.6159 4.1802,3 9.3798,3 4.7969,0 6.3356,0.4124 7.868,2.109 1.0478,1.16 5.2493,3.9455 9.3368,6.1902 4.0874,2.2446 8.9249,5.3921 10.75,6.9945 2.9039,2.5497 3.3182,3.5211 3.3182,7.78 0,4.2434 0.3826,5.1493 2.9884,7.0758 1.8867,1.395 3.2244,3.4678 3.6288,5.6234 0.9573,5.1031 -1.5789,7.112 -9.9681,7.8954 l -6.7582,0.6311 -3.8658,-3.7749 c -3.7706,-3.6819 -3.9991,-3.7582 -9.2804,-3.0983 -4.437,0.5543 -5.6701,0.3684 -6.8297,-1.0298 -2.4591,-2.9651 -7.59,-4.3964 -15.7604,-4.3964 -5.6831,0 -8.2479,-0.4074 -9.1109,-1.4474 -2.021,-2.435 -9.1165,-4.3846 -18.0437,-4.9575 -7.0505,-0.4525 -8.734,-0.8908 -9.872,-2.5703 -2.0113,-2.9684 -4.128,-2.5478 -4.128,0.8202 0,3.7427 2.0999,5.3764 10.2687,7.9888 8.4527,2.7032 13.543,5.878 17.5634,10.9542 2.4432,3.0848 4.0414,4.0961 7.2958,4.6165 2.9096,0.4652 4.9528,1.5898 6.7697,3.7261 6.1863,7.2735 6.9797,7.8694 10.477,7.8694 2.9384,0 4.2087,0.8339 8.3526,5.4833 3.8006,4.2641 6.4307,6.115 11.83,8.325 4.3626,1.7856 7.3643,3.6813 8.077,5.1009 0.6238,1.2425 1.5238,2.6487 2,3.1249 0.4762,0.4761 11.8835,0.9525 25.3495,1.0586 23.1692,0.1826 24.6366,0.3061 27.3313,2.3001 2.351,1.7397 4.534,2.1564 12.5163,2.3892 13.4621,0.3925 13.5288,0.4185 16.5593,6.4555 4.6191,9.2017 4.8708,11.3013 1.7909,14.9393 -1.4748,1.7421 -3.8065,5.4525 -5.1815,8.2454 -1.467,2.9796 -3.9463,6.0375 -6,7.4002 -4.8764,3.2358 -8.4765,2.3263 -13.3501,-3.3725 -5.2061,-6.0876 -8.8082,-7.8371 -14.5237,-7.0537 -4.1091,0.5632 -4.749,0.3618 -6.789,-2.1372 l -2.2524,-2.759 -7.3469,7.649 c -8.3146,8.6566 -11.8657,10.2864 -18.9366,8.691 -2.3657,-0.5338 -6.8366,-0.678 -9.9353,-0.3205 -5.1306,0.5919 -5.7783,0.4438 -7.25,-1.6573 -0.8888,-1.269 -1.616,-3.5244 -1.616,-5.0121 0,-3.3289 -3.3446,-6.1395 -9.8951,-8.3153 -2.6301,-0.8735 -6.0638,-2.9262 -7.6305,-4.5615 -2.4843,-2.5931 -3.5529,-2.9733 -8.3568,-2.9733 -4.5593,0 -5.9724,-0.4447 -8.2027,-2.5815 -3.3173,-3.1782 -9.857,-4.7517 -16.151,-3.886 l -4.7458,0.6527 -7.754,-8.2426 -7.754,-8.2425 0.3262,-5.6634 c 0.3236,-5.6185 0.2948,-5.6841 -3.6339,-8.2841 -3.8597,-2.5542 -8.2024,-9.4731 -8.2024,-13.0683 0,-2.2433 -1.2894,-2.127 -3.5,0.3157 -1.1814,1.3054 -3.08,2 -5.4669,2 -2.9038,0 -4.1138,0.6179 -5.875,3 -2.9062,3.9308 -5.3189,3.789 -8.5943,-0.5053 -2.1063,-2.7615 -3.1924,-3.398 -5.1187,-3 -1.3448,0.2779 -3.4811,0.7165 -4.7473,0.9747 -1.6911,0.3448 -3.6703,-0.7275 -7.457,-4.0399 l -5.1548,-4.5094 -0.293,-7.21 -0.293,-7.2101 -12,-0.5097 c -6.6,-0.2803 -12.45,-0.1357 -13,0.3213 -0.6143,0.5103 0.543,2.0382 3,3.9608 5.6618,4.4304 12.3103,11.5545 13.0974,14.0343 0.4822,1.5195 0.0748,2.499 -1.4647,3.5212 -2.675,1.7761 -2.7265,3.7839 -0.1327,5.1721 1.433,0.7669 2,2.0938 2,4.6802 0,3.2308 1.0612,4.6882 10.1104,13.884 9.4826,9.6363 10.3136,10.2413 13.3827,9.7432 3.0369,-0.4928 3.6223,-0.092 8.1396,5.5726 4.0472,5.0753 5.3833,6.105 7.9302,6.1118 2.0909,0.01 3.975,0.9602 5.9371,3.0082 2.3125,2.4137 3.7064,3 7.1325,3 3.6608,0 4.4424,0.3859 5.57,2.75 1.0231,2.1449 2.118,2.8173 4.9761,3.0557 2.5731,0.2146 4.1413,1.0336 5.2659,2.75 1.2931,1.9735 2.441,2.4443 5.9599,2.4443 3.7435,0 4.7067,0.4584 6.8287,3.25 3.8309,5.0397 5.4377,8.802 6.153,14.4065 0.8163,6.3974 -0.4666,7.9564 -7.1101,8.6404 -12.4897,1.2858 -15.1439,0.9758 -19.2093,-2.244 -3.2477,-2.5723 -4.7263,-3.0529 -9.3925,-3.0529 -5.012,0 -5.7409,-0.285 -7.6742,-3 -2.6029,-3.6555 -4.9007,-3.7991 -8,-0.5 -1.6445,1.7505 -3.4064,2.5 -5.8767,2.5 -2.6153,0 -4.3831,0.8287 -6.8328,3.2031 -2.8947,2.8056 -4.1207,3.255 -9.8807,3.6217 -6.4397,0.4101 -6.6531,0.3435 -10.2935,-3.2112 -3.5017,-3.4194 -3.9895,-3.5927 -8.406,-2.9874 -2.5787,0.3535 -5.072,1.1447 -5.5406,1.7582 -1.7635,2.309 -6.1697,15.8586 -6.1697,18.9728 0,6.2022 5.3474,7.7724 9,2.6428 2.0635,-2.8979 2.4038,-3 10,-3 7.5962,0 7.9365,0.1021 10,3 1.6335,2.294 2.9115,3 5.4309,3 2.6959,0 4.4734,1.1501 9.7803,6.328 6.4801,6.3225 8.8987,10.9621 6.8056,13.0552 -0.7198,0.7198 -6.3608,1.0094 -16.4911,0.8468 -15.3328,-0.246 -18.3432,0.354 -15.5874,3.1071 0.8057,0.8049 5.7561,1.0815 16.0804,0.8985 l 14.9163,-0.2644 1.6475,2.5144 c 1.6314,2.4898 1.7859,2.5144 15.8004,2.5144 13.4366,0 14.3384,0.1261 17.8203,2.4921 2.4067,1.6354 6.1818,2.8587 10.9821,3.5587 19.1412,2.791 19.0229,2.7587 22.5334,6.1612 2.8885,2.7996 3.3303,3.8437 3.077,7.271 -0.3664,4.9587 -2.8277,6.3754 -11.7321,6.7531 -5.7772,0.245 -6.3655,0.067 -8.2263,-2.4861 -1.7351,-2.3809 -2.6913,-2.75 -7.1231,-2.75 -4.4113,0 -5.5784,-0.4453 -8.442,-3.2208 -3.155,-3.058 -3.7431,-3.2305 -11.6311,-3.412 -10.6949,-0.246 -12.0346,0.5286 -7.7828,4.5004 3.1428,2.9358 3.2235,3.2197 2.9367,10.3256 l -0.295,7.3068 -3.6749,0.3059 c -3.4951,0.2909 -3.9959,-0.082 -10.2311,-7.6187 -6.2664,-7.5743 -6.7797,-7.9542 -11.6149,-8.5956 -4.141,-0.5493 -5.2285,-1.1174 -5.9942,-3.1313 -0.9062,-2.3835 -1.2423,-2.4603 -10.769,-2.4603 -7.0983,0 -10.3736,0.4084 -11.7748,1.4682 -2.5492,1.9281 -7.9137,1.9235 -10.8636,-0.01 -2.067,-1.3543 -2.5301,-1.3634 -3.8188,-0.075 -1.2608,1.2609 -1.4037,8.2437 -1.0185,49.7912 l 0.448,48.3247 3.002,2.5526 c 2.2286,1.8951 2.9499,3.3119 2.7999,5.5 -0.3276,4.7788 -0.1234,5.2731 2.7599,6.6819 2.3469,1.1468 2.7088,1.8735 2.4688,4.9577 -0.235,3.0204 0.2261,4.0111 2.8075,6.0313 l 3.0887,2.4172 0.445,15.9297 c 0.93,33.2879 0.7978,53.9179 -0.3715,57.9947 -0.6413,2.2359 -2.3306,5.1592 -3.7539,6.4963 -2.2207,2.0863 -2.5028,2.9991 -1.9885,6.4349 0.3296,2.202 0.1276,6.4787 -0.4489,9.5037 -1.5068,7.9065 -1.5015,26.17 0.008,29.0979 0.6813,1.3212 2.3715,3.6172 3.756,5.1023 2.201,2.361 2.5311,3.6487 2.6278,10.2504 l 0.1106,7.5501 -48,-10e-5 -48,-2e-4 0,-8.8517 z m 139.2708,-271.3362 c -0.618,-1.8542 -2.7708,-2.1618 -2.7708,-0.3958 0,0.8708 0.7125,1.5833 1.5833,1.5833 0.8709,0 1.4052,-0.5344 1.1875,-1.1875 z m -174.7708,-68.6244 c 0,-3.076 0.5792,-4.2402 3,-6.03 2.2989,-1.6996 3,-3.0039 3,-5.5809 0,-2.7852 1.1619,-4.5839 6.7634,-10.4701 6.0063,-6.3115 7.1779,-7.1071 10.4652,-7.1071 4.2861,0 10.7714,-4.9114 10.7714,-8.1573 0,-1.8555 -0.5462,-1.9194 -11.25,-1.3172 -6.1875,0.3481 -11.8125,0.8081 -12.5,1.0223 -0.8042,0.2505 -1.25,2.38 -1.25,5.9705 0,3.0695 -0.6588,6.8551 -1.4641,8.4122 -2.2003,4.255 -7.2488,8.0695 -10.6799,8.0695 -3.0966,0 -10.8033,5.4396 -10.838,7.6497 -0.0246,1.5722 10.7978,11.3503 12.5626,11.3503 0.9776,0 1.4194,-1.1864 1.4194,-3.8119 z m 39.8,-65.3881 c 1.6324,-1.6324 1.5133,-5.2951 -0.2188,-6.7326 -0.8164,-0.6776 -3.6742,-1.048 -6.7306,-0.8725 -4.8218,0.277 -5.4038,0.5678 -6.3085,3.1524 -0.8279,2.3653 -0.6719,3.0846 0.9218,4.25 2.3456,1.7151 10.6866,1.8522 12.3361,0.2027 z m 2.2,-47.9224 c 0,-1.2056 -2.7384,-1.1098 -3.5,0.1224 -1.0809,1.7489 0.5219,3.2267 2.089,1.9261 0.7761,-0.644 1.411,-1.5659 1.411,-2.0485 z m 4,-7.9821 c 0,-1.8723 0.9568,-3.9432 2.5647,-5.5511 1.4106,-1.4106 2.3247,-3.1902 2.0314,-3.9546 -0.6813,-1.7753 -4.0116,-1.799 -5.4723,-0.039 -1.3961,1.6821 -2.5962,9.9757 -1.7592,12.1569 0.9401,2.4497 2.6354,0.7692 2.6354,-2.6123 z m 176.4552,-144.5167 c 2.1779,-0.8357 4.5448,-5.6136 4.5448,-9.1742 0,-4.6763 -2.6241,-6.1328 -12.5446,-6.9626 -8.3736,-0.7005 -8.902,-0.8818 -9.4519,-3.242 -0.4656,-1.9984 -1.2871,-2.5599 -4.0946,-2.7985 -4.8511,-0.4124 -8.9089,3.3297 -8.9089,8.2156 0,3.8499 2.7642,6.4187 4.7597,4.4232 1.5065,-1.5065 3.2403,-0.1377 3.2403,2.5582 0,2.8821 3.5673,4.6015 9.5471,4.6015 3.2915,0 4.4529,-0.3912 4.4529,-1.5 0,-0.825 0.45,-1.5 1,-1.5 0.55,0 1,0.81 1,1.8 0,3.3695 2.8636,4.957 6.4552,3.5788 z m 17.5393,-69.3759 c 1.6442,-0.8799 1.84,-2.1422 1.6672,-10.75 -0.1864,-9.2827 -0.3042,-9.7684 -2.4453,-10.0746 -1.4623,-0.2091 -2.7508,-1.5215 -3.6819,-3.75 -0.7879,-1.8856 -1.8564,-3.4283 -2.3746,-3.4283 -0.5182,0 -3.1204,-1.8 -5.7827,-4 -5.7934,-4.7874 -8.3303,-5.0422 -10.6754,-1.0723 -0.9512,1.6102 -3.5337,5.2102 -5.7389,8 -3.7437,4.7362 -4.3044,5.0723 -8.4605,5.0723 -3.9667,0 -4.6256,0.3376 -6.055,3.1018 -1.5114,2.9226 -1.8488,3.0651 -5.8404,2.4665 -3.4513,-0.5175 -4.565,-0.2722 -6.0094,1.3238 -2.8093,3.1043 -1.7047,5.5562 2.6664,5.9186 2.9368,0.2435 4.0627,0.9203 5.2047,3.1288 1.8909,3.6566 3.1391,4.0605 12.5484,4.0605 l 7.8534,0 1.2801,-3.5398 c 1.0816,-2.9912 1.956,-3.7101 5.642,-4.6382 3.094,-0.7791 4.623,-1.7849 5.2599,-3.4602 1.2935,-3.4019 2.9464,-2.9049 2.9538,0.8882 0.005,2.5602 0.6417,3.6116 3,4.9535 2.0952,1.1922 2.9937,2.4677 2.9937,4.25 0,2.7805 2.4912,3.4244 5.9945,1.5494 z m -83.1749,-0.6168 c 2.3775,-0.4755 3.1384,-1.2082 3.375,-3.25 0.2812,-2.4273 0.7681,-2.6858 6.1473,-3.2637 6.9347,-0.7449 9.6778,-2.7098 7.2176,-5.1701 -2.0642,-2.0641 -10.3227,-3.3391 -11.8347,-1.8271 -0.6186,0.6186 -3.5098,1.1248 -6.4248,1.1248 -8.4262,0 -12.0538,5.4398 -7.1257,10.6855 2.2882,2.4357 3.6401,2.7016 8.6453,1.7006 z m -186.5595,-3.3361 c 2.5584,-1.6225 5.757,-4.7009 7.1079,-6.8408 l 2.4561,-3.8909 23.6236,-0.018 c 23.3072,-0.018 23.6565,-0.049 26.0879,-2.3334 2.7186,-2.554 3.121,-6.062 1.4045,-12.2431 -0.9611,-3.4609 -0.7743,-4.2 2.236,-8.8457 3.1778,-4.90416 3.3301,-5.00096 4.6763,-2.97346 0.7654,1.15256 1.7963,2.09566 2.291,2.09566 2.0577,0 8.886,-5.43489 11.4171,-9.08729 1.7197,-2.4815 3.8679,-4.2238 5.8311,-4.7294 2.8427,-0.7322 3.1341,-1.1918 3.4085,-5.3767 0.2853,-4.3513 0.143,-4.6308 -2.8992,-5.6913 -4.2062,-1.4663 -6.9,-1.4137 -6.9046,0.1347 -0.002,0.6875 -0.8602,-0.1546 -1.9071,-1.8713 -2.1867,-3.5861 -3.3395,-3.8954 -19.8485,-5.3263 l -11.2594,-0.9758 -13.2406,4.0027 c -7.2824,2.2015 -15.4994,4.8843 -18.26,5.9617 -2.7607,1.0775 -5.7982,1.959 -6.75,1.959 -0.9519,0 -1.7307,0.4414 -1.7307,0.9809 0,0.5396 -1.2375,1.2839 -2.75,1.654 -3.6365,0.89 -4.2165,1.9495 -4.2347,7.7354 -0.0112,3.5709 -0.749,6.0336 -2.7653,9.23083 -2.3778,3.77026 -3.1116,4.28706 -5.4212,3.81756 -4.2167,-0.8572 -12.5991,2.1239 -15.8958,5.6531 -2.6108,2.7948 -2.933,3.8421 -2.933,9.534 0,6.1765 0.0863,6.3942 2.5337,6.3942 1.8231,0 3.0982,0.9567 4.5461,3.4107 1.1068,1.8759 2.6977,3.6737 3.5352,3.9951 0.9974,0.3827 1.3043,1.2731 0.8894,2.5803 -0.9859,3.1063 0.2258,4.0139 5.3588,4.0139 3.5367,0 5.9299,-0.7513 9.3969,-2.95 z m 321.0043,-5.6478 c 1.256,-1.2559 -0.5847,-3.4022 -2.9179,-3.4022 -1.6412,0 -2.9828,-0.9466 -4.0997,-2.8926 -1.3284,-2.3147 -2.5679,-3.014 -6.2035,-3.5001 -2.4988,-0.334 -6.2826,-0.8876 -8.4084,-1.2302 -4.2202,-0.68 -5.5925,0.3879 -5.6196,4.3729 -0.0121,1.782 0.5567,2.2584 2.7347,2.2902 1.5125,0.022 5.225,1.129 8.25,2.4598 5.1492,2.2654 14.7755,3.3912 16.2644,1.9022 z m -416.9758,-8.6522 c 7.7751,-5.8169 9.0365,-17.75 1.8762,-17.75 -3.462,0 -5.1648,1.6485 -5.1648,5 0,3.1766 -1.6749,5 -4.593,5 -2.2212,0 -3.407,1.7155 -3.407,4.929 0,3.3523 7.9297,5.3339 11.2886,2.821 z m 329.1451,-11.9018 c 4.6823,-2.1334 4.2521,-4.4591 -2.092,-11.30756 -3.2129,-3.46843 -6.3884,-6.35893 -7.0565,-6.42343 -1.6999,-0.164 -3.102,-3.1146 -3.9167,-8.242 -0.3823,-2.4063 -1.2293,-4.8252 -1.8821,-5.3752 -0.6529,-0.55 -2.4229,-3.981 -3.9334,-7.6244 -2.3185,-5.5925 -3.748,-7.4228 -9.1772,-11.75 -3.5371,-2.8191 -6.9811,-5.1286 -7.6534,-5.1322 -0.6723,0 -2.5724,-0.9006 -4.2224,-1.9934 -1.65,-1.0928 -3.997,-1.9898 -5.2155,-1.9934 -1.2186,0 -3.5658,-1.2441 -5.2162,-2.7566 -5.7396,-5.2601 -8.9004,-7.25 -11.5163,-7.25 -2.7969,0 -9.977,-3.2606 -11.0682,-5.0262 -0.6591,-1.0665 -5.6925,-4.6153 -12.35,-8.70731 -5.1137,-3.14323 -11.0905,-3.01524 -15.0571,0.3224 -5.449,4.58511 -3.7357,8.30871 6.4714,14.06451 18.3399,10.3418 29.6766,22.5351 27.2974,29.36 -1.7107,4.9073 -8.253,8.9866 -14.4126,8.9866 -1.2477,0 -4.5555,1.1487 -7.3507,2.5526 -4.7347,2.3781 -5.0819,2.8055 -5.0785,6.25 0.004,3.7454 2.4429,8.759 6.3513,13.05529 5.235,5.7545 19.5019,9.0777 24.0861,5.6103 1.5717,-1.1887 6.1746,-1.4682 24.1826,-1.4682 20.7924,0 22.2799,0.121 22.8309,1.857 0.3242,1.0214 1.592,2.3409 2.8174,2.9323 2.9968,1.4464 10.0474,1.4779 13.1617,0.059 z m -162.5081,-48.84819 c 5.4493,0 5.7586,-0.1459 8.8604,-4.1818 1.7677,-2.3 3.2123,-4.6625 3.2101,-5.25 -0.002,-0.5875 -2.0891,-2.7557 -4.6379,-4.8182 -5.7834,-4.6801 -10.951,-5.2208 -11.9476,-1.25 -0.6354,2.5319 -3.6952,3.4665 -4.9106,1.5 -1.2693,-2.0538 -4.3993,-0.899 -6.4184,2.368 -2.5409,4.1112 -2.6336,6.9734 -0.3316,10.2363 1.5372,2.1789 2.2837,2.4145 6.1396,1.9381 2.4142,-0.2983 6.9304,-0.5424 10.036,-0.5424 z m 179.4824,-7.5 c 0.901,-1.375 2.3027,-2.5 3.1151,-2.5 1.0156,0 1.4769,-1.0718 1.4769,-3.4319 0,-4.5009 -4.5748,-8.1031 -9.1331,-7.1915 -2.1235,0.4247 -4.1576,-0.057 -6.9153,-1.6375 -4.929,-2.8249 -7.4516,-1.6841 -7.4516,3.3699 0,3.0282 0.321,3.4261 3,3.7191 3.1468,0.3441 7.8763,4.6316 8.9941,8.1534 0.9144,2.8809 4.8923,2.6039 6.9139,-0.4815 z m -290.0067,-2.637 c 1.3726,-0.6254 2.6312,-2.0712 2.7971,-3.213 0.2118,-1.458 1.3076,-2.2805 3.6809,-2.7631 7.3175,-1.488 5.1468,-6.0561 -3.4935,-7.3518 -4.1559,-0.6232 -5.1494,-0.3773 -8.7763,2.1718 -2.2495,1.5809 -4.5353,4.1408 -5.0796,5.6885 -0.847,2.4084 -0.6523,3.0871 1.351,4.7093 2.6623,2.1557 5.8893,2.4128 9.5204,0.7583 z m 121.5987,-19.9084 c 0,-0.4509 0.9049,-1.107 2.011,-1.4581 2.3629,-0.7499 5.0126,-5.42101 4.9334,-8.69685 -0.0407,-1.68003 -1.6269,-3.31007 -5.8872,-6.04966 -6.734,-4.33028 -8.6542,-4.63007 -9.6081,-1.5 -1.1937,3.917 -3.416,5.78764 -5.4021,4.54728 -4.1665,-2.60204 -9.047,1.67103 -9.047,7.92102 0,5.03361 2.052,5.98251 13.0212,6.02111 5.4883,0.019 9.9788,-0.3339 9.9788,-0.7848 z m 113.3651,-3.0272 c 3.1205,-2.45451 3.479,-6.77735 1.0629,-12.81566 -2.447,-6.11578 -5.7351,-7.03177 -19.8658,-5.53417 -4.5432,0.4815 -6.1872,0.29378 -7,-0.79928 -2.1435,-2.88283 -6.2335,-4.62856 -13.3768,-5.70956 -4.023,-0.60881 -7.7095,-0.86284 -8.1922,-0.56452 -1.2513,0.77334 -2.3351,8.99759 -1.5814,12.00051 0.58,2.31067 1.0617,2.51525 5.5485,2.35644 6.2985,-0.22293 9.5779,1.89558 12.1221,7.83103 1.8586,4.33601 2.1211,4.53651 5.2699,4.02551 1.835,-0.2978 4.693,-1.91681 6.4039,-3.62771 4.3596,-4.35965 10.2438,-3.8369 10.2438,0.91 0,4.18881 5.1443,5.24751 9.3651,1.92741 z m -257.2516,-48.93836 c 8.2914,-1.55615 10.0187,-5.42368 5.1485,-11.52734 l -2.738,-3.43143 -7.012,0.64751 c -4.221,0.38979 -7.4259,1.20885 -8.0519,2.05776 -0.6737,0.91365 -2.4343,1.29654 -5,1.08734 -3.4851,-0.28416 -3.9982,-0.65383 -4.2774,-3.08201 -0.3489,-3.03388 -4.348,-5.74088 -8.4812,-5.74088 -1.816,0 -2.7909,0.90982 -4.0182,3.75 -4.2819,9.90937 -2.8745,14.23789 4.6381,14.26518 2.2982,0.008 6.2036,0.65325 8.6786,1.4331 5.4077,1.70395 13.7742,1.91823 21.1135,0.54077 z m 148.9437,-50.51784 c 10.0879,-5.08019 11.25,-7.27502 10.5037,-19.83711 -0.3224,-5.42625 -0.832,-10.26375 -1.1325,-10.75 -0.9562,-1.54714 -5.7244,-0.95194 -7.8639,0.98163 -1.1355,1.02615 -3.4245,2.1194 -5.0867,2.42944 -2.5764,0.48057 -3.2702,0.1316 -4.7035,-2.36573 -1.3986,-2.43681 -2.3254,-2.92944 -5.5119,-2.92944 -3.0591,0 -5.2072,1.03653 -10.6668,5.14717 l -6.8364,5.14717 0.6562,5.58297 c 0.7796,6.63334 2.3571,9.31393 7.3599,12.50647 2.0486,1.30731 4.8156,3.55576 6.149,4.99657 3.4753,3.75533 8.3881,3.49464 17.1329,-0.90914 z m 241.7428,-6.67121 c 1.6903,-1.69032 1.4933,-5.75023 -0.3127,-6.44326 -2.2557,-0.86558 -4.4873,1.50451 -4.4873,4.7657 0,3.10387 2.5,3.97759 4.8,1.67756 z m -141.9953,-17.95498 c 0.2397,-2.87553 -0.1809,-3.99513 -1.9725,-5.25 -2.8877,-2.0226 -6.7547,-2.03802 -9.6097,-0.0383 -2.9373,2.05737 -2.8033,3.81888 0.5275,6.93557 2.1695,2.03003 3.5944,2.51353 6.75,2.29047 3.821,-0.27009 4.0136,-0.44629 4.3047,-3.93772 z m -198.6118,-48.79631 c 3.9193,-2.31246 16.0736,-3.07979 19.4914,-1.23054 7.0865,3.83429 27.3157,-2.20758 27.3157,-8.15842 0,-3.66831 -5.5808,-9.47295 -10.3027,-10.71595 -2.3085,-0.60769 -5.7723,-2.06176 -7.6973,-3.23127 -2.5185,-1.53007 -6.0239,-2.3251 -12.5,-2.83506 -4.95,-0.38978 -10.8061,-1.01665 -13.0137,-1.39305 -3.4985,-0.59652 -4.3545,-0.34346 -6.6696,1.97157 -3.0516,3.05168 -6.8167,14.31499 -6.8167,20.39254 0,3.0392 0.5498,4.42313 2.2225,5.59477 2.8802,2.01735 3.9742,1.96319 7.9704,-0.39459 z m 343.9593,-6.91936 c 1.9804,-0.0966 2.9119,-0.87452 3.6777,-3.07135 0.7921,-2.27201 1.953,-3.19173 5.0979,-4.03855 4.7824,-1.28776 5.5008,-4.04752 1.5251,-5.85893 -3.4388,-1.56685 -6.4921,-1.45993 -10.8997,0.38171 -2.4597,1.02771 -6.0644,1.44474 -10.8047,1.25 -7.0921,-0.29135 -7.1205,-0.28197 -9.431,3.10565 -1.2746,1.86884 -2.3175,4.60292 -2.3175,6.07573 l 0,2.67784 10.25,-0.19638 c 5.6375,-0.10801 11.4435,-0.25458 12.9022,-0.32572 z m -85.0859,-15.70928 c 0.5516,-0.66458 1.275,-3.50596 1.6076,-6.31419 0.5926,-5.00421 0.5521,-5.10588 -2.0346,-5.10588 -1.6794,0 -2.6393,-0.54556 -2.6393,-1.5 0,-2.08996 -9.5529,-2.08996 -11.6429,0 -0.825,0.825 -2.4927,1.5 -3.706,1.5 -3.1633,0 -6.6511,2.75415 -6.6511,5.25199 0,1.17621 1.1825,3.37284 2.6278,4.88139 2.521,2.63142 3.0097,2.73778 12.0317,2.61891 5.9903,-0.0789 9.7681,-0.56254 10.4068,-1.33222 z m -282.2379,-11.94286 c 0.724,-1.58893 2.2641,-2.74571 4.1605,-3.125 1.8775,-0.37549 3.0045,-1.21398 2.9936,-2.22721 -0.0188,-1.74831 -11.5244,-9.125 -14.2325,-9.125 -0.8876,0 -2.6127,1.40286 -3.8336,3.11746 -2.7417,3.85025 -1.7697,7.97516 2.0926,8.88057 1.5709,0.36825 2.609,1.39993 2.8106,2.79296 0.4605,3.18346 4.5118,2.9719 6.0088,-0.31378 z m 58.7592,-55.97721 c 1.5109,-1.63036 3.3948,-2.5 5.4157,-2.5 2.5962,0 3.3359,-0.5676 4.5611,-3.5 1.546,-3.69998 1.6687,-3.76041 7.9356,-3.90666 3.974,-0.0927 4.002,-0.12092 4.3075,-4.34334 0.2967,-4.1007 0.2048,-4.25 -2.6151,-4.25 -1.6075,0 -3.9959,-0.81482 -5.3075,-1.81071 -5.5326,-4.20063 -19.2066,-5.70626 -22.1535,-2.43929 -2.8675,3.17896 -7.0058,14.02053 -6.3497,16.63483 0.3382,1.34749 2.1907,3.42385 4.1166,4.61413 1.9259,1.19029 3.5017,2.57746 3.5017,3.0826 0,1.87771 4.3494,0.83351 6.5876,-1.58156 z m 53.841,-41.07143 c 0.949,-0.94906 1.5714,-3.30199 1.5714,-5.94098 0,-2.40326 0.45,-4.64767 1,-4.98759 1.5451,-0.95494 1.1833,-4.63993 -0.655,-6.67126 -2.0571,-2.27313 -4.6721,-2.34444 -6.4714,-0.17647 -0.7542,0.90874 -3.7343,3.39794 -6.6224,5.53154 -4.7816,3.53239 -5.2512,4.22969 -5.2512,7.79804 0,4.88996 1.6207,5.94727 9.1786,5.98774 3.8617,0.0207 6.1813,-0.47235 7.25,-1.54102 z m 146.1169,-8.88312 c 4.3862,-4.38628 2.594,-12.67666 -2.398,-11.09225 -1.5361,0.48754 -2.34,-0.18285 -3.798,-3.16738 -1.8313,-3.7486 -3.7743,-4.50035 -8.261,-3.19612 -0.845,0.24563 -1.6568,-0.55505 -2.0227,-1.99506 -0.7561,-2.97529 -3.2205,-4.63299 -5.5555,-3.73697 -2.4916,0.95611 -1.6217,8.55684 1.9379,16.93216 3.145,7.39986 4.7821,8.5458 12.3473,8.64249 4.3421,0.0555 5.7373,-0.37421 7.75,-2.38687 z m -92.5807,-25.47971 c 0.5694,-1.06384 1.0352,-3.99849 1.0352,-6.52144 0,-3.97392 -0.3489,-4.74613 -2.6095,-5.77617 -2.2402,-1.02066 -2.8064,-0.91978 -4,0.71257 -1.7601,2.40705 -1.8667,12.16049 -0.1405,12.85702 2.6222,1.05806 4.7174,0.59171 5.7148,-1.27198 z m 154.0352,-3.56574 c 2.679,-3.89374 3.57,-4.5 6.6138,-4.5 4.67,0 6.8505,-1.29255 8.3704,-4.96178 0.9869,-2.3826 1.8755,-3.03822 4.1181,-3.03822 3.7446,0 4.739,-3.46075 2.3395,-8.1423 -2.1937,-4.28025 -3.077,-4.8237 -7.8708,-4.84239 -3.0855,-0.012 -4.6292,-0.71307 -7.1905,-3.26531 -1.7938,-1.7875 -4.1882,-4.0375 -5.321,-5 -1.2118,-1.02969 -2.0595,-2.95494 -2.0595,-4.67742 0,-2.00507 -0.8665,-3.60562 -2.75,-5.07991 -2.0973,-1.64158 -2.8687,-3.26099 -3.25,-6.82258 -0.5715,-5.33804 -0.2847,-5.26185 -12.5,-3.32003 -9.9716,1.58514 -31.4815,0.41269 -32.2408,-1.75737 -0.3065,-0.87598 -1.4977,-2.63615 -2.6472,-3.91149 -2.024,-2.24571 -2.4305,-2.29672 -12.8964,-1.6184 -9.9682,0.64607 -10.9775,0.54474 -13.0111,-1.30624 -3.5935,-3.27098 -6.3488,-4.29859 -13.2545,-4.94345 -4.7685,-0.4453 -6.7919,-1.08346 -7.4736,-2.35711 -1.2854,-2.40197 -10.0569,-4.33071 -16.6162,-3.65373 -4.8888,0.50457 -5.5533,0.33268 -6.9489,-1.79735 -1.448,-2.2099 -6.0521,-4.50492 -9.0375,-4.50492 -0.7302,0 -2.0451,1.09482 -2.9218,2.43294 -1.2401,1.89255 -1.3484,2.89207 -0.4879,4.5 0.6085,1.13688 1.7755,2.06706 2.5934,2.06706 1.9137,0 10.4425,7.83428 10.4425,9.59218 0,2.24328 4.0091,3.67842 8.5406,3.05731 3.6158,-0.49561 4.6476,-0.20443 6.9996,1.97539 2.3674,2.19401 3.3404,2.46375 6.8593,1.90155 8.4071,-1.34319 29.7996,-1.72742 30.9687,-0.55623 0.6717,0.6729 1.0683,4.17093 0.9757,8.60469 -0.155,7.4188 -0.1341,7.48272 3,9.17136 2.528,1.36208 6.5926,1.77531 20.4241,2.07641 15.9939,0.34818 17.3463,0.52239 18.3304,2.36128 0.5844,1.09196 2.6264,2.6388 4.5378,3.43743 2.9775,1.24406 3.3599,1.76907 2.6695,3.66534 -0.7893,2.16833 -0.8386,7.16903 -0.1505,15.27492 0.3664,4.31568 3.4567,7.82259 10.8448,12.30664 5.0185,3.0459 6.5195,2.69042 10,-2.36827 z m -191.9186,-13.66213 c 3.963,-7.89733 4.977,-10.85031 4.5497,-13.25 -0.3025,-1.69833 -0.9057,-5.11287 -1.3405,-7.58787 -0.7012,-3.991 -1.116,-4.53718 -3.6678,-4.8287 -2.2139,-0.25292 -3.744,0.5176 -6.6365,3.34209 -3.3411,3.26249 -3.8068,4.32803 -4.1867,9.57972 -0.3402,4.70374 -0.9752,6.48077 -3.1135,8.71263 -5.5343,5.77657 -1.7551,13.92139 6.5548,14.12658 2.4923,0.0615 3.2033,-0.85387 7.8405,-10.09445 z m 80.7372,-16.65864 c 0.4876,-5.08152 -1.8581,-7.81086 -7.2336,-8.41676 -3.4175,-0.38521 -5.2755,-1.29019 -7.4684,-3.63762 -2.0643,-2.20983 -3.8337,-3.12485 -6.0426,-3.12485 -2.4547,0 -3.3381,-0.5645 -4.1259,-2.63643 -0.9595,-2.52383 -1.2468,-2.61321 -6.7252,-2.09273 -3.1476,0.29903 -6.4771,0.84579 -7.3989,1.21502 -1.2883,0.51602 -1.7509,0.0403 -2,-2.05641 -0.5037,-4.24055 -2.9731,-5.17156 -6.6923,-2.5232 -4.8966,3.48666 -4.3213,6.93137 2.4445,14.63774 3.0669,3.49324 7.484,7.2749 9.8157,8.40368 4.4408,2.14974 12.9519,2.7531 15.5602,1.10308 1.0258,-0.64892 1.8582,-0.33894 2.8351,1.05585 1.2071,1.72335 2.3578,1.93751 9.0479,1.68393 l 7.6649,-0.29053 0.3186,-3.32077 z m -100.3168,-13.18755 c 0.8075,-3.67652 3.3398,-5.17336 7.3838,-4.36456 2.6623,0.53246 3.2095,0.24579 4.3115,-2.25863 1.7644,-4.00971 2.6569,-4.42255 8.0529,-3.72493 4.7113,0.6091 4.7499,0.59066 4.7347,-2.26473 -0.008,-1.58336 -0.3459,-3.37793 -0.75,-3.98794 -0.4287,-0.64719 -5.4484,-1.3273 -12.0527,-1.63299 l -11.3179,-0.52387 -3.6821,3.96953 c -4.9314,5.31653 -6.1045,7.6061 -6.1466,11.99675 -0.0392,4.09714 1.6851,5.71861 6.1351,5.76928 2.1661,0.0247 2.7954,-0.5379 3.3313,-2.97791 z m -30.6854,-13.74168 c -0.3648,-3.17069 -4.3915,-4.52095 -5.4279,-1.82014 -0.99,2.5801 0.3801,4.57014 3.1465,4.57014 2.2441,0 2.5548,-0.37452 2.2814,-2.75 z m 96.9336,-22.82667 c 4.4391,-0.91039 2.1348,-2.42333 -3.691,-2.42333 -5.7947,0 -7.8301,0.94325 -6.54,3.03068 0.578,0.93526 3.5773,0.75721 10.231,-0.60735 z m -119.4264,-23.80105 c 2.5817,-4.99293 1.4602,-7.01157 -4.1265,-7.42739 -7.1517,-0.5323 -11.5533,4.45195 -7.9471,8.99895 1.6309,2.05642 3.5856,2.73912 7.1593,2.50045 2.2788,-0.15219 3.3438,-1.0346 4.9143,-4.07201 z m 155.6924,2.85839 c 0.8964,-1.08004 2.2329,-1.337 4.6225,-0.88871 2.711,0.50859 3.3615,0.3116 3.3615,-1.01797 0,-2.1024 -8.8588,-10.77928 -10.1749,-9.96592 -0.5436,0.33599 -4.2141,0.89912 -8.1567,1.25141 l -7.1684,0.64052 -0.3182,3.31532 c -0.5411,5.63649 2.8105,8.01455 11.4458,8.12129 3.4296,0.0424 5.5451,-0.43971 6.3884,-1.45594 z m -116.6215,-27.57638 c 1.4654,-1.15264 3.3229,-1.84299 4.1277,-1.53413 0.8049,0.30887 2.2542,-0.28343 3.2206,-1.31621 1.067,-1.14023 4.8994,-2.51497 9.7572,-3.50002 10.4638,-2.12183 23.5404,-6.43569 25.7631,-8.49903 1.4977,-1.39028 1.564,-1.90906 0.4406,-3.44543 -1.1487,-1.57096 -1.8406,-1.6649 -5.2631,-0.71467 -2.1673,0.60173 -5.978,1.09656 -8.4681,1.09962 -2.5245,0.003 -5.5388,0.7139 -6.8133,1.60662 -2.4249,1.6985 -13.761,4.39896 -18.466,4.39896 -8.4446,0 -18.6932,6.00887 -18.6932,10.96001 0,3.52887 10.2536,4.20151 14.3945,0.94428 z m 112.7298,-21.65429 c 1.3741,-1.5125 3.0236,-3.9875 3.6656,-5.5 1.062,-2.50221 1.6422,-2.75098 6.4387,-2.76086 5.0328,-0.0104 5.5543,-0.2736 11.5214,-5.81465 7.2539,-6.73597 7.697,-8.73496 3.1132,-14.04247 -3.8486,-4.45618 -7.0913,-6.02813 -12.5565,-6.08692 -5.185,-0.0558 -7.6333,2.69685 -6.7216,7.55705 0.5408,2.88273 0.2662,3.30764 -3.2471,5.02347 -3.2405,1.58256 -3.88,2.41929 -4.1079,5.37438 -0.4462,5.78469 -1.1095,7.70325 -3.7471,10.83787 -2.1996,2.61409 -2.3689,3.31852 -1.3398,5.57707 1.5191,3.33398 3.8523,3.27886 6.9811,-0.16494 z m -78.2552,-4 c 2.1316,-1.78427 3.1924,-7.72346 1.7859,-9.99917 -0.3988,-0.64535 -2.3642,-1.48084 -4.3674,-1.85665 -3.1736,-0.59537 -3.9479,-0.32787 -6.0182,2.07905 -3.2834,3.81713 -2.8834,9.64039 0.7306,10.6376 4.1382,1.14183 5.6778,0.9734 7.8691,-0.86083 z m -117.409,-16.65835 c 4.8382,-1.68386 9.7769,-6.92114 9.3488,-9.91393 -0.1699,-1.18744 -1.5428,-2.74852 -3.0509,-3.46906 -1.508,-0.72055 -3.2114,-2.18726 -3.7851,-3.25937 -1.5023,-2.80697 -2.9616,-2.434 -7.0459,1.80071 -1.9892,2.0625 -5.4865,4.98322 -7.7718,6.4905 -3.2565,2.14776 -4.1552,3.35536 -4.1552,5.58333 0,1.56356 0.3,3.14284 0.6667,3.5095 1.1765,1.17651 11.7021,0.68221 15.7934,-0.74168 z m 319.3352,-39.76911 c 2.6299,-4.64913 2.6342,-4.69049 0.7007,-6.82699 -1.0699,-1.18223 -4.2501,-3.23988 -7.0671,-4.57253 -5.8513,-2.7681 -13.2715,-3.07841 -24.9289,-1.04252 -5.8291,1.01802 -7.0506,1.56844 -7.3025,3.29065 -0.3394,2.32117 1.9614,3.29254 7.8525,3.3152 1.9525,0.008 3.9775,0.40834 4.5,0.89073 0.5225,0.48239 3.3848,1.66758 6.3607,2.63376 2.976,0.96617 7.251,3.04189 9.5,4.61269 2.2491,1.57081 4.9104,2.74812 5.914,2.61625 1.0036,-0.13188 3.0154,-2.34464 4.4706,-4.91724 z m -148.122,-10.84021 c 0.0953,-2.46528 0.2078,-5.01632 0.25,-5.66897 0.0422,-0.65265 1.5392,-1.32765 3.3267,-1.5 2.7164,-0.26191 3.25,-0.72379 3.25,-2.81336 0,-2.11348 -0.4844,-2.51546 -3.1333,-2.6 -2.2,-0.0702 -4.2378,-1.20447 -6.841,-3.80763 -4.2652,-4.26524 -7.8163,-4.57273 -8.3608,-0.72397 -0.1843,1.30262 -1.8977,3.93105 -3.8076,5.84096 -5.2289,5.22888 -4.4132,7.52384 3.1343,8.81808 4.7222,0.80977 6.0691,1.44533 6.3576,3 0.526,2.83478 2.2191,4.60668 4.0588,4.24778 1.1398,-0.22235 1.6412,-1.58368 1.7653,-4.79289 z m -76.6733,-25.29168 c 2.2401,-1.1468 2.5,-1.89399 2.5,-7.18728 l 0,-5.90742 3.6459,-0.87269 c 4.1501,-0.99339 8.3742,-4.92553 7.5628,-7.0401 -0.7643,-1.99156 -5.3078,-2.65226 -7.5309,-1.09511 -1.0235,0.71684 -4.0033,1.84282 -6.6219,2.5022 -5.4121,1.36277 -8.5458,5.22392 -8.5522,10.53731 -0.002,1.72015 -0.6787,3.68775 -1.5037,4.37244 -5.0782,4.21452 3.7374,8.15271 10.5,4.69065 z m 123.0422,-76.23559 c 3.1391,-3.34143 1.7209,-5.95506 -3.2313,-5.95506 -2.5496,0 -4.2901,-0.84376 -6.7042,-3.25 -4.0528,-4.03966 -7.6736,-4.2947 -9.3309,-0.65725 -1.0469,2.29776 -0.9023,2.81228 1.2714,4.52233 1.3491,1.06127 3.7063,2.20398 5.2383,2.53936 1.532,0.33537 3.2186,1.41889 3.7478,2.40782 0.5293,0.98894 1.9758,1.99321 3.2145,2.23172 1.2387,0.23851 2.5113,0.49494 2.8279,0.56984 0.3166,0.0749 1.6516,-1.00904 2.9665,-2.40876 z m -163.5923,-1.70506 c 1.4227,-6.55891 0.9492,-8.94579 -1.6999,-8.56955 -2.4387,0.34636 -3.4306,3.97183 -2.309,8.44038 0.7563,3.0135 3.3651,3.09756 4.0089,0.12917 z m 185.8789,-38.00116 c 0.9411,-0.68814 2.0693,-2.60064 2.507,-4.25 0.6452,-2.43068 1.3993,-3.05821 3.9801,-3.3122 4.6975,-0.4623 3.8715,-2.1815 -1.0659,-2.21844 -2.3375,-0.0175 -5.0575,-0.64423 -6.0445,-1.39276 -1.3593,-1.03091 -2.5931,-1.11584 -5.0877,-0.35022 -2.9699,0.91151 -3.8458,0.64383 -8.9225,-2.72691 -6.9785,-4.63344 -8.9352,-4.23245 -8.5032,1.74254 0.2825,3.90762 0.5555,4.28709 3.3079,4.59764 3.9016,0.44021 5.5,1.83987 5.5,4.81618 0,1.5644 0.7893,2.72705 2.25,3.31417 3.3258,1.33679 10.119,1.21307 12.0788,-0.22 z m -148.2631,-11.78402 c 2.6158,-1.39993 2.4325,-3.1482 -0.6321,-6.02722 -1.4116,-1.32607 -3.7331,-4.55451 -5.159,-7.17432 -2.6601,-4.88747 -3.9776,-5.66031 -6.0746,-3.56328 -1.851,1.851 -1.444,4.51614 1.4692,9.62193 4.7359,8.30016 6.2677,9.35258 10.3965,7.14289 z"
     style="fill:#002200"
     inkscape:connector-curvature="0" />
</svg>
